<?xml version="1.0" encoding="UTF-8" standalone="no"?><svg xmlns="http://www.w3.org/2000/svg" xmlns:xlink="http://www.w3.org/1999/xlink" clip-rule="evenodd" stroke-miterlimit="4.00" viewBox="0 0 1024 768"><desc>SVG generated by Keynote</desc><defs></defs><g transform="matrix(1.00, 0.00, -0.00, -1.00, 0.0, 768.0)"><path d="M 0.0 768.0 L 1024.0 768.0 L 1024.0 0.0 L 0.0 0.0 Z M 0.0 768.0 " fill="#000000"></path><text xml:space="preserve" font-family="Helvetica-Light" font-size="60.0" fill="#E57D1F" transform="matrix(1.00, 0.00, -0.00, -1.00, 405.0, 641.0)">A</text><text xml:space="preserve" font-family="Helvetica-Light" font-size="60.0" fill="#E57D1F" transform="matrix(1.00, 0.00, -0.00, -1.00, 445.0, 641.0)">g</text><text xml:space="preserve" font-family="Helvetica-Light" font-size="60.0" fill="#E57D1F" transform="matrix(1.00, 0.00, -0.00, -1.00, 481.7, 641.0)">e</text><text xml:space="preserve" font-family="Helvetica-Light" font-size="60.0" fill="#E57D1F" transform="matrix(1.00, 0.00, -0.00, -1.00, 515.0, 641.0)">n</text><text xml:space="preserve" font-family="Helvetica-Light" font-size="60.0" fill="#E57D1F" transform="matrix(1.00, 0.00, -0.00, -1.00, 548.4, 641.0)">d</text><text xml:space="preserve" font-family="Helvetica-Light" font-size="60.0" fill="#E57D1F" transform="matrix(1.00, 0.00, -0.00, -1.00, 585.1, 641.0)">a</text><text xml:space="preserve" font-family="Avenir-Book" font-size="21.0" fill="#FEFFFF" transform="matrix(1.00, 0.00, -0.00, -1.00, 79.0, 519.2)">•</text><text xml:space="preserve" font-family="Avenir-Book" font-size="28.0" fill="#FEFFFF" transform="matrix(1.00, 0.00, -0.00, -1.00, 106.0, 517.0)">A</text><text xml:space="preserve" font-family="Avenir-Book" font-size="28.0" fill="#FEFFFF" transform="matrix(1.00, 0.00, -0.00, -1.00, 125.2, 517.0)">b</text><text xml:space="preserve" font-family="Avenir-Book" font-size="28.0" fill="#FEFFFF" transform="matrix(1.00, 0.00, -0.00, -1.00, 142.3, 517.0)">o</text><text xml:space="preserve" font-family="Avenir-Book" font-size="28.0" fill="#FEFFFF" transform="matrix(1.00, 0.00, -0.00, -1.00, 158.9, 517.0)">u</text><text xml:space="preserve" font-family="Avenir-Book" font-size="28.0" fill="#FEFFFF" transform="matrix(1.00, 0.00, -0.00, -1.00, 174.5, 517.0)">t</text><text xml:space="preserve" font-family="Avenir-Book" font-size="28.0" fill="#FEFFFF" transform="matrix(1.00, 0.00, -0.00, -1.00, 183.8, 517.0)"> </text><text xml:space="preserve" font-family="Avenir-Book" font-size="28.0" fill="#FEFFFF" transform="matrix(1.00, 0.00, -0.00, -1.00, 191.6, 517.0)">b</text><text xml:space="preserve" font-family="Avenir-Book" font-size="28.0" fill="#FEFFFF" transform="matrix(1.00, 0.00, -0.00, -1.00, 208.7, 517.0)">e</text><text xml:space="preserve" font-family="Avenir-Book" font-size="28.0" fill="#FEFFFF" transform="matrix(1.00, 0.00, -0.00, -1.00, 224.2, 517.0)">a</text><text xml:space="preserve" font-family="Avenir-Book" font-size="28.0" fill="#FEFFFF" transform="matrix(1.00, 0.00, -0.00, -1.00, 238.8, 517.0)">c</text><text xml:space="preserve" font-family="Avenir-Book" font-size="28.0" fill="#FEFFFF" transform="matrix(1.00, 0.00, -0.00, -1.00, 252.3, 517.0)">o</text><text xml:space="preserve" font-family="Avenir-Book" font-size="28.0" fill="#FEFFFF" transform="matrix(1.00, 0.00, -0.00, -1.00, 268.9, 517.0)">n</text><text xml:space="preserve" font-family="Avenir-Book" font-size="28.0" fill="#FEFFFF" transform="matrix(1.00, 0.00, -0.00, -1.00, 284.4, 517.0)">s</text><text xml:space="preserve" font-family="Avenir-Book" font-size="28.0" fill="#FEFFFF" transform="matrix(1.00, 0.00, -0.00, -1.00, 296.4, 517.0)"> </text><text xml:space="preserve" font-family="Avenir-Book" font-size="28.0" fill="#FEFFFF" transform="matrix(1.00, 0.00, -0.00, -1.00, 304.2, 517.0)">a</text><text xml:space="preserve" font-family="Avenir-Book" font-size="28.0" fill="#FEFFFF" transform="matrix(1.00, 0.00, -0.00, -1.00, 318.7, 517.0)">n</text><text xml:space="preserve" font-family="Avenir-Book" font-size="28.0" fill="#FEFFFF" transform="matrix(1.00, 0.00, -0.00, -1.00, 334.3, 517.0)">d</text><text xml:space="preserve" font-family="Avenir-Book" font-size="28.0" fill="#FEFFFF" transform="matrix(1.00, 0.00, -0.00, -1.00, 351.4, 517.0)"> </text><text xml:space="preserve" font-family="Avenir-Book" font-size="28.0" fill="#FEFFFF" transform="matrix(1.00, 0.00, -0.00, -1.00, 359.1, 517.0)">t</text><text xml:space="preserve" font-family="Avenir-Book" font-size="28.0" fill="#FEFFFF" transform="matrix(1.00, 0.00, -0.00, -1.00, 368.4, 517.0)">h</text><text xml:space="preserve" font-family="Avenir-Book" font-size="28.0" fill="#FEFFFF" transform="matrix(1.00, 0.00, -0.00, -1.00, 384.0, 517.0)">e</text><text xml:space="preserve" font-family="Avenir-Book" font-size="28.0" fill="#FEFFFF" transform="matrix(1.00, 0.00, -0.00, -1.00, 399.6, 517.0)"> </text><text xml:space="preserve" font-family="Avenir-Book" font-size="28.0" fill="#FEFFFF" transform="matrix(1.00, 0.00, -0.00, -1.00, 407.4, 517.0)">t</text><text xml:space="preserve" font-family="Avenir-Book" font-size="28.0" fill="#FEFFFF" transform="matrix(1.00, 0.00, -0.00, -1.00, 416.7, 517.0)">e</text><text xml:space="preserve" font-family="Avenir-Book" font-size="28.0" fill="#FEFFFF" transform="matrix(1.00, 0.00, -0.00, -1.00, 432.2, 517.0)">c</text><text xml:space="preserve" font-family="Avenir-Book" font-size="28.0" fill="#FEFFFF" transform="matrix(1.00, 0.00, -0.00, -1.00, 445.7, 517.0)">h</text><text xml:space="preserve" font-family="Avenir-Book" font-size="28.0" fill="#FEFFFF" transform="matrix(1.00, 0.00, -0.00, -1.00, 461.3, 517.0)">n</text><text xml:space="preserve" font-family="Avenir-Book" font-size="28.0" fill="#FEFFFF" transform="matrix(1.00, 0.00, -0.00, -1.00, 476.9, 517.0)">o</text><text xml:space="preserve" font-family="Avenir-Book" font-size="28.0" fill="#FEFFFF" transform="matrix(1.00, 0.00, -0.00, -1.00, 493.5, 517.0)">l</text><text xml:space="preserve" font-family="Avenir-Book" font-size="28.0" fill="#FEFFFF" transform="matrix(1.00, 0.00, -0.00, -1.00, 500.2, 517.0)">o</text><text xml:space="preserve" font-family="Avenir-Book" font-size="28.0" fill="#FEFFFF" transform="matrix(1.00, 0.00, -0.00, -1.00, 516.8, 517.0)">g</text><text xml:space="preserve" font-family="Avenir-Book" font-size="28.0" fill="#FEFFFF" transform="matrix(1.00, 0.00, -0.00, -1.00, 533.9, 517.0)">y</text><text xml:space="preserve" font-family="Avenir-Book" font-size="28.0" fill="#FEFFFF" transform="matrix(1.00, 0.00, -0.00, -1.00, 547.4, 517.0)"> </text><text xml:space="preserve" font-family="Avenir-Book" font-size="21.0" fill="#FEFFFF" transform="matrix(1.00, 0.00, -0.00, -1.00, 79.0, 449.2)">•</text><text xml:space="preserve" font-family="Avenir-Book" font-size="28.0" fill="#FEFFFF" transform="matrix(1.00, 0.00, -0.00, -1.00, 106.0, 447.0)">P</text><text xml:space="preserve" font-family="Avenir-Book" font-size="28.0" fill="#FEFFFF" transform="matrix(1.00, 0.00, -0.00, -1.00, 122.1, 447.0)">r</text><text xml:space="preserve" font-family="Avenir-Book" font-size="28.0" fill="#FEFFFF" transform="matrix(1.00, 0.00, -0.00, -1.00, 130.9, 447.0)">o</text><text xml:space="preserve" font-family="Avenir-Book" font-size="28.0" fill="#FEFFFF" transform="matrix(1.00, 0.00, -0.00, -1.00, 147.5, 447.0)">j</text><text xml:space="preserve" font-family="Avenir-Book" font-size="28.0" fill="#FEFFFF" transform="matrix(1.00, 0.00, -0.00, -1.00, 154.2, 447.0)">e</text><text xml:space="preserve" font-family="Avenir-Book" font-size="28.0" fill="#FEFFFF" transform="matrix(1.00, 0.00, -0.00, -1.00, 169.8, 447.0)">c</text><text xml:space="preserve" font-family="Avenir-Book" font-size="28.0" fill="#FEFFFF" transform="matrix(1.00, 0.00, -0.00, -1.00, 183.3, 447.0)">t</text><text xml:space="preserve" font-family="Avenir-Book" font-size="28.0" fill="#FEFFFF" transform="matrix(1.00, 0.00, -0.00, -1.00, 192.5, 447.0)"> </text><text xml:space="preserve" font-family="Avenir-Book" font-size="28.0" fill="#FEFFFF" transform="matrix(1.00, 0.00, -0.00, -1.00, 200.3, 447.0)">m</text><text xml:space="preserve" font-family="Avenir-Book" font-size="28.0" fill="#FEFFFF" transform="matrix(1.00, 0.00, -0.00, -1.00, 224.2, 447.0)">o</text><text xml:space="preserve" font-family="Avenir-Book" font-size="28.0" fill="#FEFFFF" transform="matrix(1.00, 0.00, -0.00, -1.00, 240.8, 447.0)">t</text><text xml:space="preserve" font-family="Avenir-Book" font-size="28.0" fill="#FEFFFF" transform="matrix(1.00, 0.00, -0.00, -1.00, 250.1, 447.0)">i</text><text xml:space="preserve" font-family="Avenir-Book" font-size="28.0" fill="#FEFFFF" transform="matrix(1.00, 0.00, -0.00, -1.00, 256.8, 447.0)">v</text><text xml:space="preserve" font-family="Avenir-Book" font-size="28.0" fill="#FEFFFF" transform="matrix(1.00, 0.00, -0.00, -1.00, 270.3, 447.0)">e</text><text xml:space="preserve" font-family="Avenir-Book" font-size="28.0" fill="#FEFFFF" transform="matrix(1.00, 0.00, -0.00, -1.00, 285.9, 447.0)"> </text><text xml:space="preserve" font-family="Avenir-Book" font-size="28.0" fill="#FEFFFF" transform="matrix(1.00, 0.00, -0.00, -1.00, 293.7, 447.0)">a</text><text xml:space="preserve" font-family="Avenir-Book" font-size="28.0" fill="#FEFFFF" transform="matrix(1.00, 0.00, -0.00, -1.00, 308.2, 447.0)">n</text><text xml:space="preserve" font-family="Avenir-Book" font-size="28.0" fill="#FEFFFF" transform="matrix(1.00, 0.00, -0.00, -1.00, 323.8, 447.0)">d</text><text xml:space="preserve" font-family="Avenir-Book" font-size="28.0" fill="#FEFFFF" transform="matrix(1.00, 0.00, -0.00, -1.00, 340.9, 447.0)"> </text><text xml:space="preserve" font-family="Avenir-Book" font-size="28.0" fill="#FEFFFF" transform="matrix(1.00, 0.00, -0.00, -1.00, 348.6, 447.0)">g</text><text xml:space="preserve" font-family="Avenir-Book" font-size="28.0" fill="#FEFFFF" transform="matrix(1.00, 0.00, -0.00, -1.00, 365.8, 447.0)">o</text><text xml:space="preserve" font-family="Avenir-Book" font-size="28.0" fill="#FEFFFF" transform="matrix(1.00, 0.00, -0.00, -1.00, 382.4, 447.0)">a</text><text xml:space="preserve" font-family="Avenir-Book" font-size="28.0" fill="#FEFFFF" transform="matrix(1.00, 0.00, -0.00, -1.00, 396.9, 447.0)">l</text><text xml:space="preserve" font-family="Avenir-Book" font-size="28.0" fill="#FEFFFF" transform="matrix(1.00, 0.00, -0.00, -1.00, 403.6, 447.0)">s</text><text xml:space="preserve" font-family="Avenir-Book" font-size="28.0" fill="#FEFFFF" transform="matrix(1.00, 0.00, -0.00, -1.00, 415.5, 447.0)"> </text><text xml:space="preserve" font-family="Avenir-Book" font-size="21.0" fill="#FEFFFF" transform="matrix(1.00, 0.00, -0.00, -1.00, 79.0, 379.2)">•</text><text xml:space="preserve" font-family="Avenir-Book" font-size="28.0" fill="#FEFFFF" transform="matrix(1.00, 0.00, -0.00, -1.00, 106.0, 377.0)">F</text><text xml:space="preserve" font-family="Avenir-Book" font-size="28.0" fill="#FEFFFF" transform="matrix(1.00, 0.00, -0.00, -1.00, 121.6, 377.0)">e</text><text xml:space="preserve" font-family="Avenir-Book" font-size="28.0" fill="#FEFFFF" transform="matrix(1.00, 0.00, -0.00, -1.00, 137.1, 377.0)">a</text><text xml:space="preserve" font-family="Avenir-Book" font-size="28.0" fill="#FEFFFF" transform="matrix(1.00, 0.00, -0.00, -1.00, 151.7, 377.0)">t</text><text xml:space="preserve" font-family="Avenir-Book" font-size="28.0" fill="#FEFFFF" transform="matrix(1.00, 0.00, -0.00, -1.00, 161.0, 377.0)">u</text><text xml:space="preserve" font-family="Avenir-Book" font-size="28.0" fill="#FEFFFF" transform="matrix(1.00, 0.00, -0.00, -1.00, 176.5, 377.0)">r</text><text xml:space="preserve" font-family="Avenir-Book" font-size="28.0" fill="#FEFFFF" transform="matrix(1.00, 0.00, -0.00, -1.00, 185.3, 377.0)">e</text><text xml:space="preserve" font-family="Avenir-Book" font-size="28.0" fill="#FEFFFF" transform="matrix(1.00, 0.00, -0.00, -1.00, 200.9, 377.0)">s</text><text xml:space="preserve" font-family="Avenir-Book" font-size="28.0" fill="#FEFFFF" transform="matrix(1.00, 0.00, -0.00, -1.00, 212.8, 377.0)"> </text><text xml:space="preserve" font-family="Avenir-Book" font-size="28.0" fill="#FEFFFF" transform="matrix(1.00, 0.00, -0.00, -1.00, 220.6, 377.0)">i</text><text xml:space="preserve" font-family="Avenir-Book" font-size="28.0" fill="#FEFFFF" transform="matrix(1.00, 0.00, -0.00, -1.00, 227.3, 377.0)">n</text><text xml:space="preserve" font-family="Avenir-Book" font-size="28.0" fill="#FEFFFF" transform="matrix(1.00, 0.00, -0.00, -1.00, 242.9, 377.0)"> </text><text xml:space="preserve" font-family="Avenir-Book" font-size="28.0" fill="#FEFFFF" transform="matrix(1.00, 0.00, -0.00, -1.00, 250.7, 377.0)">t</text><text xml:space="preserve" font-family="Avenir-Book" font-size="28.0" fill="#FEFFFF" transform="matrix(1.00, 0.00, -0.00, -1.00, 260.0, 377.0)">h</text><text xml:space="preserve" font-family="Avenir-Book" font-size="28.0" fill="#FEFFFF" transform="matrix(1.00, 0.00, -0.00, -1.00, 275.5, 377.0)">e</text><text xml:space="preserve" font-family="Avenir-Book" font-size="28.0" fill="#FEFFFF" transform="matrix(1.00, 0.00, -0.00, -1.00, 291.1, 377.0)"> </text><text xml:space="preserve" font-family="Avenir-Book" font-size="28.0" fill="#FEFFFF" transform="matrix(1.00, 0.00, -0.00, -1.00, 298.9, 377.0)">a</text><text xml:space="preserve" font-family="Avenir-Book" font-size="28.0" fill="#FEFFFF" transform="matrix(1.00, 0.00, -0.00, -1.00, 313.4, 377.0)">p</text><text xml:space="preserve" font-family="Avenir-Book" font-size="28.0" fill="#FEFFFF" transform="matrix(1.00, 0.00, -0.00, -1.00, 330.5, 377.0)">p</text><text xml:space="preserve" font-family="Avenir-Book" font-size="28.0" fill="#FEFFFF" transform="matrix(1.00, 0.00, -0.00, -1.00, 347.6, 377.0)">l</text><text xml:space="preserve" font-family="Avenir-Book" font-size="28.0" fill="#FEFFFF" transform="matrix(1.00, 0.00, -0.00, -1.00, 354.4, 377.0)">i</text><text xml:space="preserve" font-family="Avenir-Book" font-size="28.0" fill="#FEFFFF" transform="matrix(1.00, 0.00, -0.00, -1.00, 361.1, 377.0)">c</text><text xml:space="preserve" font-family="Avenir-Book" font-size="28.0" fill="#FEFFFF" transform="matrix(1.00, 0.00, -0.00, -1.00, 374.6, 377.0)">a</text><text xml:space="preserve" font-family="Avenir-Book" font-size="28.0" fill="#FEFFFF" transform="matrix(1.00, 0.00, -0.00, -1.00, 389.1, 377.0)">t</text><text xml:space="preserve" font-family="Avenir-Book" font-size="28.0" fill="#FEFFFF" transform="matrix(1.00, 0.00, -0.00, -1.00, 398.4, 377.0)">i</text><text xml:space="preserve" font-family="Avenir-Book" font-size="28.0" fill="#FEFFFF" transform="matrix(1.00, 0.00, -0.00, -1.00, 405.1, 377.0)">o</text><text xml:space="preserve" font-family="Avenir-Book" font-size="28.0" fill="#FEFFFF" transform="matrix(1.00, 0.00, -0.00, -1.00, 421.7, 377.0)">n</text><text xml:space="preserve" font-family="Avenir-Book" font-size="28.0" fill="#FEFFFF" transform="matrix(1.00, 0.00, -0.00, -1.00, 437.3, 377.0)"> </text><text xml:space="preserve" font-family="Avenir-Book" font-size="21.0" fill="#FEFFFF" transform="matrix(1.00, 0.00, -0.00, -1.00, 79.0, 309.2)">•</text><text xml:space="preserve" font-family="Avenir-Book" font-size="28.0" fill="#FEFFFF" transform="matrix(1.00, 0.00, -0.00, -1.00, 106.0, 307.0)">T</text><text xml:space="preserve" font-family="Avenir-Book" font-size="28.0" fill="#FEFFFF" transform="matrix(1.00, 0.00, -0.00, -1.00, 119.0, 307.0)">e</text><text xml:space="preserve" font-family="Avenir-Book" font-size="28.0" fill="#FEFFFF" transform="matrix(1.00, 0.00, -0.00, -1.00, 134.5, 307.0)">c</text><text xml:space="preserve" font-family="Avenir-Book" font-size="28.0" fill="#FEFFFF" transform="matrix(1.00, 0.00, -0.00, -1.00, 148.0, 307.0)">h</text><text xml:space="preserve" font-family="Avenir-Book" font-size="28.0" fill="#FEFFFF" transform="matrix(1.00, 0.00, -0.00, -1.00, 163.6, 307.0)">n</text><text xml:space="preserve" font-family="Avenir-Book" font-size="28.0" fill="#FEFFFF" transform="matrix(1.00, 0.00, -0.00, -1.00, 179.2, 307.0)">o</text><text xml:space="preserve" font-family="Avenir-Book" font-size="28.0" fill="#FEFFFF" transform="matrix(1.00, 0.00, -0.00, -1.00, 195.8, 307.0)">l</text><text xml:space="preserve" font-family="Avenir-Book" font-size="28.0" fill="#FEFFFF" transform="matrix(1.00, 0.00, -0.00, -1.00, 202.5, 307.0)">o</text><text xml:space="preserve" font-family="Avenir-Book" font-size="28.0" fill="#FEFFFF" transform="matrix(1.00, 0.00, -0.00, -1.00, 219.1, 307.0)">g</text><text xml:space="preserve" font-family="Avenir-Book" font-size="28.0" fill="#FEFFFF" transform="matrix(1.00, 0.00, -0.00, -1.00, 236.2, 307.0)">y</text><text xml:space="preserve" font-family="Avenir-Book" font-size="28.0" fill="#FEFFFF" transform="matrix(1.00, 0.00, -0.00, -1.00, 249.7, 307.0)"> </text><text xml:space="preserve" font-family="Avenir-Book" font-size="28.0" fill="#FEFFFF" transform="matrix(1.00, 0.00, -0.00, -1.00, 257.5, 307.0)">S</text><text xml:space="preserve" font-family="Avenir-Book" font-size="28.0" fill="#FEFFFF" transform="matrix(1.00, 0.00, -0.00, -1.00, 273.0, 307.0)">t</text><text xml:space="preserve" font-family="Avenir-Book" font-size="28.0" fill="#FEFFFF" transform="matrix(1.00, 0.00, -0.00, -1.00, 282.3, 307.0)">a</text><text xml:space="preserve" font-family="Avenir-Book" font-size="28.0" fill="#FEFFFF" transform="matrix(1.00, 0.00, -0.00, -1.00, 296.9, 307.0)">c</text><text xml:space="preserve" font-family="Avenir-Book" font-size="28.0" fill="#FEFFFF" transform="matrix(1.00, 0.00, -0.00, -1.00, 310.4, 307.0)">k</text><text xml:space="preserve" font-family="Avenir-Book" font-size="28.0" fill="#FEFFFF" transform="matrix(1.00, 0.00, -0.00, -1.00, 323.9, 307.0)"> </text><text xml:space="preserve" font-family="Avenir-Book" font-size="28.0" fill="#FEFFFF" transform="matrix(1.00, 0.00, -0.00, -1.00, 331.7, 307.0)">-</text><text xml:space="preserve" font-family="Avenir-Book" font-size="28.0" fill="#FEFFFF" transform="matrix(1.00, 0.00, -0.00, -1.00, 341.0, 307.0)"> </text><text xml:space="preserve" font-family="Avenir-Book" font-size="28.0" fill="#FEFFFF" transform="matrix(1.00, 0.00, -0.00, -1.00, 348.8, 307.0)">s</text><text xml:space="preserve" font-family="Avenir-Book" font-size="28.0" fill="#FEFFFF" transform="matrix(1.00, 0.00, -0.00, -1.00, 360.7, 307.0)">h</text><text xml:space="preserve" font-family="Avenir-Book" font-size="28.0" fill="#FEFFFF" transform="matrix(1.00, 0.00, -0.00, -1.00, 376.3, 307.0)">i</text><text xml:space="preserve" font-family="Avenir-Book" font-size="28.0" fill="#FEFFFF" transform="matrix(1.00, 0.00, -0.00, -1.00, 383.0, 307.0)">f</text><text xml:space="preserve" font-family="Avenir-Book" font-size="28.0" fill="#FEFFFF" transform="matrix(1.00, 0.00, -0.00, -1.00, 391.3, 307.0)">t</text><text xml:space="preserve" font-family="Avenir-Book" font-size="28.0" fill="#FEFFFF" transform="matrix(1.00, 0.00, -0.00, -1.00, 400.6, 307.0)"> </text><text xml:space="preserve" font-family="Avenir-Book" font-size="28.0" fill="#FEFFFF" transform="matrix(1.00, 0.00, -0.00, -1.00, 408.3, 307.0)">f</text><text xml:space="preserve" font-family="Avenir-Book" font-size="28.0" fill="#FEFFFF" transform="matrix(1.00, 0.00, -0.00, -1.00, 416.6, 307.0)">r</text><text xml:space="preserve" font-family="Avenir-Book" font-size="28.0" fill="#FEFFFF" transform="matrix(1.00, 0.00, -0.00, -1.00, 425.4, 307.0)">o</text><text xml:space="preserve" font-family="Avenir-Book" font-size="28.0" fill="#FEFFFF" transform="matrix(1.00, 0.00, -0.00, -1.00, 442.0, 307.0)">m</text><text xml:space="preserve" font-family="Avenir-Book" font-size="28.0" fill="#FEFFFF" transform="matrix(1.00, 0.00, -0.00, -1.00, 465.9, 307.0)"> </text><text xml:space="preserve" font-family="Avenir-Book" font-size="28.0" fill="#FEFFFF" transform="matrix(1.00, 0.00, -0.00, -1.00, 473.7, 307.0)">A</text><text xml:space="preserve" font-family="Avenir-Book" font-size="28.0" fill="#FEFFFF" transform="matrix(1.00, 0.00, -0.00, -1.00, 492.9, 307.0)">n</text><text xml:space="preserve" font-family="Avenir-Book" font-size="28.0" fill="#FEFFFF" transform="matrix(1.00, 0.00, -0.00, -1.00, 508.4, 307.0)">d</text><text xml:space="preserve" font-family="Avenir-Book" font-size="28.0" fill="#FEFFFF" transform="matrix(1.00, 0.00, -0.00, -1.00, 525.6, 307.0)">r</text><text xml:space="preserve" font-family="Avenir-Book" font-size="28.0" fill="#FEFFFF" transform="matrix(1.00, 0.00, -0.00, -1.00, 534.3, 307.0)">o</text><text xml:space="preserve" font-family="Avenir-Book" font-size="28.0" fill="#FEFFFF" transform="matrix(1.00, 0.00, -0.00, -1.00, 550.9, 307.0)">i</text><text xml:space="preserve" font-family="Avenir-Book" font-size="28.0" fill="#FEFFFF" transform="matrix(1.00, 0.00, -0.00, -1.00, 557.7, 307.0)">d</text><text xml:space="preserve" font-family="Avenir-Book" font-size="28.0" fill="#FEFFFF" transform="matrix(1.00, 0.00, -0.00, -1.00, 574.8, 307.0)"> </text><text xml:space="preserve" font-family="Avenir-Book" font-size="28.0" fill="#FEFFFF" transform="matrix(1.00, 0.00, -0.00, -1.00, 582.6, 307.0)">t</text><text xml:space="preserve" font-family="Avenir-Book" font-size="28.0" fill="#FEFFFF" transform="matrix(1.00, 0.00, -0.00, -1.00, 591.9, 307.0)">o</text><text xml:space="preserve" font-family="Avenir-Book" font-size="28.0" fill="#FEFFFF" transform="matrix(1.00, 0.00, -0.00, -1.00, 608.5, 307.0)"> </text><text xml:space="preserve" font-family="Avenir-Book" font-size="28.0" fill="#FEFFFF" transform="matrix(1.00, 0.00, -0.00, -1.00, 616.2, 307.0)">I</text><text xml:space="preserve" font-family="Avenir-Book" font-size="28.0" fill="#FEFFFF" transform="matrix(1.00, 0.00, -0.00, -1.00, 623.6, 307.0)">o</text><text xml:space="preserve" font-family="Avenir-Book" font-size="28.0" fill="#FEFFFF" transform="matrix(1.00, 0.00, -0.00, -1.00, 640.2, 307.0)">n</text><text xml:space="preserve" font-family="Avenir-Book" font-size="28.0" fill="#FEFFFF" transform="matrix(1.00, 0.00, -0.00, -1.00, 655.8, 307.0)">i</text><text xml:space="preserve" font-family="Avenir-Book" font-size="28.0" fill="#FEFFFF" transform="matrix(1.00, 0.00, -0.00, -1.00, 662.5, 307.0)">c</text><text xml:space="preserve" font-family="Avenir-Book" font-size="28.0" fill="#FEFFFF" transform="matrix(1.00, 0.00, -0.00, -1.00, 676.0, 307.0)"> </text><text xml:space="preserve" font-family="Avenir-Book" font-size="21.0" fill="#FEFFFF" transform="matrix(1.00, 0.00, -0.00, -1.00, 79.0, 239.2)">•</text><text xml:space="preserve" font-family="Avenir-Book" font-size="28.0" fill="#FEFFFF" transform="matrix(1.00, 0.00, -0.00, -1.00, 106.0, 237.0)">P</text><text xml:space="preserve" font-family="Avenir-Book" font-size="28.0" fill="#FEFFFF" transform="matrix(1.00, 0.00, -0.00, -1.00, 122.1, 237.0)">r</text><text xml:space="preserve" font-family="Avenir-Book" font-size="28.0" fill="#FEFFFF" transform="matrix(1.00, 0.00, -0.00, -1.00, 130.9, 237.0)">o</text><text xml:space="preserve" font-family="Avenir-Book" font-size="28.0" fill="#FEFFFF" transform="matrix(1.00, 0.00, -0.00, -1.00, 147.5, 237.0)">g</text><text xml:space="preserve" font-family="Avenir-Book" font-size="28.0" fill="#FEFFFF" transform="matrix(1.00, 0.00, -0.00, -1.00, 164.6, 237.0)">r</text><text xml:space="preserve" font-family="Avenir-Book" font-size="28.0" fill="#FEFFFF" transform="matrix(1.00, 0.00, -0.00, -1.00, 173.4, 237.0)">e</text><text xml:space="preserve" font-family="Avenir-Book" font-size="28.0" fill="#FEFFFF" transform="matrix(1.00, 0.00, -0.00, -1.00, 188.9, 237.0)">s</text><text xml:space="preserve" font-family="Avenir-Book" font-size="28.0" fill="#FEFFFF" transform="matrix(1.00, 0.00, -0.00, -1.00, 200.9, 237.0)">s</text><text xml:space="preserve" font-family="Avenir-Book" font-size="28.0" fill="#FEFFFF" transform="matrix(1.00, 0.00, -0.00, -1.00, 212.8, 237.0)"> </text><text xml:space="preserve" font-family="Avenir-Book" font-size="28.0" fill="#FEFFFF" transform="matrix(1.00, 0.00, -0.00, -1.00, 220.6, 237.0)">s</text><text xml:space="preserve" font-family="Avenir-Book" font-size="28.0" fill="#FEFFFF" transform="matrix(1.00, 0.00, -0.00, -1.00, 232.5, 237.0)">o</text><text xml:space="preserve" font-family="Avenir-Book" font-size="28.0" fill="#FEFFFF" transform="matrix(1.00, 0.00, -0.00, -1.00, 249.1, 237.0)"> </text><text xml:space="preserve" font-family="Avenir-Book" font-size="28.0" fill="#FEFFFF" transform="matrix(1.00, 0.00, -0.00, -1.00, 256.9, 237.0)">f</text><text xml:space="preserve" font-family="Avenir-Book" font-size="28.0" fill="#FEFFFF" transform="matrix(1.00, 0.00, -0.00, -1.00, 265.2, 237.0)">a</text><text xml:space="preserve" font-family="Avenir-Book" font-size="28.0" fill="#FEFFFF" transform="matrix(1.00, 0.00, -0.00, -1.00, 279.7, 237.0)">r</text><text xml:space="preserve" font-family="Avenir-Book" font-size="28.0" fill="#FEFFFF" transform="matrix(1.00, 0.00, -0.00, -1.00, 289.0, 237.0)"> </text><text xml:space="preserve" font-family="Avenir-Book" font-size="21.0" fill="#FEFFFF" transform="matrix(1.00, 0.00, -0.00, -1.00, 79.0, 169.2)">•</text><text xml:space="preserve" font-family="Avenir-Book" font-size="28.0" fill="#FEFFFF" transform="matrix(1.00, 0.00, -0.00, -1.00, 106.0, 167.0)">F</text><text xml:space="preserve" font-family="Avenir-Book" font-size="28.0" fill="#FEFFFF" transform="matrix(1.00, 0.00, -0.00, -1.00, 121.6, 167.0)">u</text><text xml:space="preserve" font-family="Avenir-Book" font-size="28.0" fill="#FEFFFF" transform="matrix(1.00, 0.00, -0.00, -1.00, 137.1, 167.0)">r</text><text xml:space="preserve" font-family="Avenir-Book" font-size="28.0" fill="#FEFFFF" transform="matrix(1.00, 0.00, -0.00, -1.00, 146.4, 167.0)">t</text><text xml:space="preserve" font-family="Avenir-Book" font-size="28.0" fill="#FEFFFF" transform="matrix(1.00, 0.00, -0.00, -1.00, 155.7, 167.0)">h</text><text xml:space="preserve" font-family="Avenir-Book" font-size="28.0" fill="#FEFFFF" transform="matrix(1.00, 0.00, -0.00, -1.00, 171.3, 167.0)">e</text><text xml:space="preserve" font-family="Avenir-Book" font-size="28.0" fill="#FEFFFF" transform="matrix(1.00, 0.00, -0.00, -1.00, 186.9, 167.0)">r</text><text xml:space="preserve" font-family="Avenir-Book" font-size="28.0" fill="#FEFFFF" transform="matrix(1.00, 0.00, -0.00, -1.00, 196.2, 167.0)"> </text><text xml:space="preserve" font-family="Avenir-Book" font-size="28.0" fill="#FEFFFF" transform="matrix(1.00, 0.00, -0.00, -1.00, 203.9, 167.0)">w</text><text xml:space="preserve" font-family="Avenir-Book" font-size="28.0" fill="#FEFFFF" transform="matrix(1.00, 0.00, -0.00, -1.00, 224.2, 167.0)">o</text><text xml:space="preserve" font-family="Avenir-Book" font-size="28.0" fill="#FEFFFF" transform="matrix(1.00, 0.00, -0.00, -1.00, 240.8, 167.0)">r</text><text xml:space="preserve" font-family="Avenir-Book" font-size="28.0" fill="#FEFFFF" transform="matrix(1.00, 0.00, -0.00, -1.00, 250.1, 167.0)">k</text><text xml:space="preserve" font-family="Avenir-Book" font-size="28.0" fill="#FEFFFF" transform="matrix(1.00, 0.00, -0.00, -1.00, 263.6, 167.0)"> </text><text xml:space="preserve" font-family="Avenir-Book" font-size="28.0" fill="#FEFFFF" transform="matrix(1.00, 0.00, -0.00, -1.00, 271.3, 167.0)">p</text><text xml:space="preserve" font-family="Avenir-Book" font-size="28.0" fill="#FEFFFF" transform="matrix(1.00, 0.00, -0.00, -1.00, 288.4, 167.0)">l</text><text xml:space="preserve" font-family="Avenir-Book" font-size="28.0" fill="#FEFFFF" transform="matrix(1.00, 0.00, -0.00, -1.00, 295.2, 167.0)">a</text><text xml:space="preserve" font-family="Avenir-Book" font-size="28.0" fill="#FEFFFF" transform="matrix(1.00, 0.00, -0.00, -1.00, 309.7, 167.0)">n</text><text xml:space="preserve" font-family="Avenir-Book" font-size="28.0" fill="#FEFFFF" transform="matrix(1.00, 0.00, -0.00, -1.00, 325.3, 167.0)"> </text><text xml:space="preserve" font-family="Avenir-Book" font-size="21.0" fill="#FEFFFF" transform="matrix(1.00, 0.00, -0.00, -1.00, 79.0, 99.2)">•</text><text xml:space="preserve" font-family="Avenir-Book" font-size="28.0" fill="#FEFFFF" transform="matrix(1.00, 0.00, -0.00, -1.00, 106.0, 97.0)">D</text><text xml:space="preserve" font-family="Avenir-Book" font-size="28.0" fill="#FEFFFF" transform="matrix(1.00, 0.00, -0.00, -1.00, 126.7, 97.0)">e</text><text xml:space="preserve" font-family="Avenir-Book" font-size="28.0" fill="#FEFFFF" transform="matrix(1.00, 0.00, -0.00, -1.00, 142.3, 97.0)">m</text><text xml:space="preserve" font-family="Avenir-Book" font-size="28.0" fill="#FEFFFF" transform="matrix(1.00, 0.00, -0.00, -1.00, 166.2, 97.0)">o</text><text xml:space="preserve" font-family="Avenir-Book" font-size="28.0" fill="#FEFFFF" transform="matrix(1.00, 0.00, -0.00, -1.00, 182.8, 97.0)">n</text><text xml:space="preserve" font-family="Avenir-Book" font-size="28.0" fill="#FEFFFF" transform="matrix(1.00, 0.00, -0.00, -1.00, 198.3, 97.0)">s</text><text xml:space="preserve" font-family="Avenir-Book" font-size="28.0" fill="#FEFFFF" transform="matrix(1.00, 0.00, -0.00, -1.00, 210.3, 97.0)">t</text><text xml:space="preserve" font-family="Avenir-Book" font-size="28.0" fill="#FEFFFF" transform="matrix(1.00, 0.00, -0.00, -1.00, 219.6, 97.0)">r</text><text xml:space="preserve" font-family="Avenir-Book" font-size="28.0" fill="#FEFFFF" transform="matrix(1.00, 0.00, -0.00, -1.00, 228.9, 97.0)">a</text><text xml:space="preserve" font-family="Avenir-Book" font-size="28.0" fill="#FEFFFF" transform="matrix(1.00, 0.00, -0.00, -1.00, 243.4, 97.0)">t</text><text xml:space="preserve" font-family="Avenir-Book" font-size="28.0" fill="#FEFFFF" transform="matrix(1.00, 0.00, -0.00, -1.00, 252.7, 97.0)">i</text><text xml:space="preserve" font-family="Avenir-Book" font-size="28.0" fill="#FEFFFF" transform="matrix(1.00, 0.00, -0.00, -1.00, 259.4, 97.0)">o</text><text xml:space="preserve" font-family="Avenir-Book" font-size="28.0" fill="#FEFFFF" transform="matrix(1.00, 0.00, -0.00, -1.00, 276.0, 97.0)">n</text><text xml:space="preserve" font-family="Avenir-Book" font-size="28.0" fill="#FEFFFF" transform="matrix(1.00, 0.00, -0.00, -1.00, 291.6, 97.0)"> </text><text xml:space="preserve" font-family="Avenir-Book" font-size="28.0" fill="#FEFFFF" transform="matrix(1.00, 0.00, -0.00, -1.00, 299.4, 97.0)">o</text><text xml:space="preserve" font-family="Avenir-Book" font-size="28.0" fill="#FEFFFF" transform="matrix(1.00, 0.00, -0.00, -1.00, 316.0, 97.0)">f</text><text xml:space="preserve" font-family="Avenir-Book" font-size="28.0" fill="#FEFFFF" transform="matrix(1.00, 0.00, -0.00, -1.00, 324.3, 97.0)"> </text><text xml:space="preserve" font-family="Avenir-Book" font-size="28.0" fill="#FEFFFF" transform="matrix(1.00, 0.00, -0.00, -1.00, 332.0, 97.0)">t</text><text xml:space="preserve" font-family="Avenir-Book" font-size="28.0" fill="#FEFFFF" transform="matrix(1.00, 0.00, -0.00, -1.00, 341.3, 97.0)">h</text><text xml:space="preserve" font-family="Avenir-Book" font-size="28.0" fill="#FEFFFF" transform="matrix(1.00, 0.00, -0.00, -1.00, 356.9, 97.0)">e</text><text xml:space="preserve" font-family="Avenir-Book" font-size="28.0" fill="#FEFFFF" transform="matrix(1.00, 0.00, -0.00, -1.00, 372.5, 97.0)"> </text><text xml:space="preserve" font-family="Avenir-Book" font-size="28.0" fill="#FEFFFF" transform="matrix(1.00, 0.00, -0.00, -1.00, 380.3, 97.0)">a</text><text xml:space="preserve" font-family="Avenir-Book" font-size="28.0" fill="#FEFFFF" transform="matrix(1.00, 0.00, -0.00, -1.00, 394.8, 97.0)">p</text><text xml:space="preserve" font-family="Avenir-Book" font-size="28.0" fill="#FEFFFF" transform="matrix(1.00, 0.00, -0.00, -1.00, 411.9, 97.0)">p</text><text xml:space="preserve" font-family="Avenir-Book" font-size="28.0" fill="#FEFFFF" transform="matrix(1.00, 0.00, -0.00, -1.00, 429.0, 97.0)">l</text><text xml:space="preserve" font-family="Avenir-Book" font-size="28.0" fill="#FEFFFF" transform="matrix(1.00, 0.00, -0.00, -1.00, 435.7, 97.0)">i</text><text xml:space="preserve" font-family="Avenir-Book" font-size="28.0" fill="#FEFFFF" transform="matrix(1.00, 0.00, -0.00, -1.00, 442.4, 97.0)">c</text><text xml:space="preserve" font-family="Avenir-Book" font-size="28.0" fill="#FEFFFF" transform="matrix(1.00, 0.00, -0.00, -1.00, 455.9, 97.0)">a</text><text xml:space="preserve" font-family="Avenir-Book" font-size="28.0" fill="#FEFFFF" transform="matrix(1.00, 0.00, -0.00, -1.00, 470.5, 97.0)">t</text><text xml:space="preserve" font-family="Avenir-Book" font-size="28.0" fill="#FEFFFF" transform="matrix(1.00, 0.00, -0.00, -1.00, 479.8, 97.0)">i</text><text xml:space="preserve" font-family="Avenir-Book" font-size="28.0" fill="#FEFFFF" transform="matrix(1.00, 0.00, -0.00, -1.00, 486.5, 97.0)">o</text><text xml:space="preserve" font-family="Avenir-Book" font-size="28.0" fill="#FEFFFF" transform="matrix(1.00, 0.00, -0.00, -1.00, 503.1, 97.0)">n</text><text xml:space="preserve" font-family="Helvetica-Light" font-size="18.0" fill="#FEFFFF" transform="matrix(1.00, 0.00, -0.00, -1.00, 506.0, 17.0)">2</text></g></svg>