<?xml version="1.0" encoding="UTF-8" standalone="no"?><svg xmlns="http://www.w3.org/2000/svg" xmlns:xlink="http://www.w3.org/1999/xlink" clip-rule="evenodd" stroke-miterlimit="4.00" viewBox="0 0 1024 768"><desc>SVG generated by Keynote</desc><defs></defs><g transform="matrix(1.00, 0.00, -0.00, -1.00, 0.0, 768.0)"><path d="M 0.0 768.0 L 1024.0 768.0 L 1024.0 0.0 L 0.0 0.0 Z M 0.0 768.0 " fill="#000000"></path><text xml:space="preserve" font-family="Helvetica" font-size="63.0" fill="#FEFFFF" transform="matrix(1.00, 0.00, -0.00, -1.00, 123.0, 473.0)">I</text><text xml:space="preserve" font-family="Helvetica" font-size="63.0" fill="#FEFFFF" transform="matrix(1.00, 0.00, -0.00, -1.00, 140.5, 473.0)">m</text><text xml:space="preserve" font-family="Helvetica" font-size="63.0" fill="#FEFFFF" transform="matrix(1.00, 0.00, -0.00, -1.00, 193.0, 473.0)">p</text><text xml:space="preserve" font-family="Helvetica" font-size="63.0" fill="#FEFFFF" transform="matrix(1.00, 0.00, -0.00, -1.00, 228.0, 473.0)">l</text><text xml:space="preserve" font-family="Helvetica" font-size="63.0" fill="#FEFFFF" transform="matrix(1.00, 0.00, -0.00, -1.00, 242.0, 473.0)">e</text><text xml:space="preserve" font-family="Helvetica" font-size="63.0" fill="#FEFFFF" transform="matrix(1.00, 0.00, -0.00, -1.00, 277.1, 473.0)">m</text><text xml:space="preserve" font-family="Helvetica" font-size="63.0" fill="#FEFFFF" transform="matrix(1.00, 0.00, -0.00, -1.00, 329.6, 473.0)">e</text><text xml:space="preserve" font-family="Helvetica" font-size="63.0" fill="#FEFFFF" transform="matrix(1.00, 0.00, -0.00, -1.00, 364.6, 473.0)">n</text><text xml:space="preserve" font-family="Helvetica" font-size="63.0" fill="#FEFFFF" transform="matrix(1.00, 0.00, -0.00, -1.00, 399.7, 473.0)">t</text><text xml:space="preserve" font-family="Helvetica" font-size="63.0" fill="#FEFFFF" transform="matrix(1.00, 0.00, -0.00, -1.00, 417.2, 473.0)">a</text><text xml:space="preserve" font-family="Helvetica" font-size="63.0" fill="#FEFFFF" transform="matrix(1.00, 0.00, -0.00, -1.00, 452.2, 473.0)">t</text><text xml:space="preserve" font-family="Helvetica" font-size="63.0" fill="#FEFFFF" transform="matrix(1.00, 0.00, -0.00, -1.00, 469.7, 473.0)">i</text><text xml:space="preserve" font-family="Helvetica" font-size="63.0" fill="#FEFFFF" transform="matrix(1.00, 0.00, -0.00, -1.00, 483.7, 473.0)">o</text><text xml:space="preserve" font-family="Helvetica" font-size="63.0" fill="#FEFFFF" transform="matrix(1.00, 0.00, -0.00, -1.00, 518.8, 473.0)">n</text><text xml:space="preserve" font-family="Helvetica" font-size="63.0" fill="#FEFFFF" transform="matrix(1.00, 0.00, -0.00, -1.00, 553.8, 473.0)"> </text><text xml:space="preserve" font-family="Helvetica" font-size="63.0" fill="#FEFFFF" transform="matrix(1.00, 0.00, -0.00, -1.00, 571.3, 473.0)">o</text><text xml:space="preserve" font-family="Helvetica" font-size="63.0" fill="#FEFFFF" transform="matrix(1.00, 0.00, -0.00, -1.00, 606.3, 473.0)">f</text><text xml:space="preserve" font-family="Helvetica" font-size="63.0" fill="#FEFFFF" transform="matrix(1.00, 0.00, -0.00, -1.00, 623.8, 473.0)"> </text><text xml:space="preserve" font-family="Helvetica" font-size="63.0" fill="#FEFFFF" transform="matrix(1.00, 0.00, -0.00, -1.00, 641.3, 473.0)">P</text><text xml:space="preserve" font-family="Helvetica" font-size="63.0" fill="#FEFFFF" transform="matrix(1.00, 0.00, -0.00, -1.00, 683.3, 473.0)">r</text><text xml:space="preserve" font-family="Helvetica" font-size="63.0" fill="#FEFFFF" transform="matrix(1.00, 0.00, -0.00, -1.00, 704.3, 473.0)">o</text><text xml:space="preserve" font-family="Helvetica" font-size="63.0" fill="#FEFFFF" transform="matrix(1.00, 0.00, -0.00, -1.00, 739.4, 473.0)">x</text><text xml:space="preserve" font-family="Helvetica" font-size="63.0" fill="#FEFFFF" transform="matrix(1.00, 0.00, -0.00, -1.00, 770.9, 473.0)">i</text><text xml:space="preserve" font-family="Helvetica" font-size="63.0" fill="#FEFFFF" transform="matrix(1.00, 0.00, -0.00, -1.00, 784.9, 473.0)">m</text><text xml:space="preserve" font-family="Helvetica" font-size="63.0" fill="#FEFFFF" transform="matrix(1.00, 0.00, -0.00, -1.00, 837.4, 473.0)">i</text><text xml:space="preserve" font-family="Helvetica" font-size="63.0" fill="#FEFFFF" transform="matrix(1.00, 0.00, -0.00, -1.00, 851.4, 473.0)">t</text><text xml:space="preserve" font-family="Helvetica" font-size="63.0" fill="#FEFFFF" transform="matrix(1.00, 0.00, -0.00, -1.00, 868.9, 473.0)">y</text><text xml:space="preserve" font-family="Helvetica" font-size="63.0" fill="#FEFFFF" transform="matrix(1.00, 0.00, -0.00, -1.00, 900.4, 473.0)"> </text><text xml:space="preserve" font-family="Helvetica" font-size="63.0" fill="#FEFFFF" transform="matrix(1.00, 0.00, -0.00, -1.00, 302.0, 397.0)">b</text><text xml:space="preserve" font-family="Helvetica" font-size="63.0" fill="#FEFFFF" transform="matrix(1.00, 0.00, -0.00, -1.00, 337.1, 397.0)">a</text><text xml:space="preserve" font-family="Helvetica" font-size="63.0" fill="#FEFFFF" transform="matrix(1.00, 0.00, -0.00, -1.00, 372.1, 397.0)">s</text><text xml:space="preserve" font-family="Helvetica" font-size="63.0" fill="#FEFFFF" transform="matrix(1.00, 0.00, -0.00, -1.00, 403.6, 397.0)">e</text><text xml:space="preserve" font-family="Helvetica" font-size="63.0" fill="#FEFFFF" transform="matrix(1.00, 0.00, -0.00, -1.00, 438.7, 397.0)">d</text><text xml:space="preserve" font-family="Helvetica" font-size="63.0" fill="#FEFFFF" transform="matrix(1.00, 0.00, -0.00, -1.00, 473.7, 397.0)"> </text><text xml:space="preserve" font-family="Helvetica" font-size="63.0" fill="#FEFFFF" transform="matrix(1.00, 0.00, -0.00, -1.00, 491.2, 397.0)">s</text><text xml:space="preserve" font-family="Helvetica" font-size="63.0" fill="#FEFFFF" transform="matrix(1.00, 0.00, -0.00, -1.00, 522.7, 397.0)">e</text><text xml:space="preserve" font-family="Helvetica" font-size="63.0" fill="#FEFFFF" transform="matrix(1.00, 0.00, -0.00, -1.00, 557.7, 397.0)">r</text><text xml:space="preserve" font-family="Helvetica" font-size="63.0" fill="#FEFFFF" transform="matrix(1.00, 0.00, -0.00, -1.00, 578.7, 397.0)">v</text><text xml:space="preserve" font-family="Helvetica" font-size="63.0" fill="#FEFFFF" transform="matrix(1.00, 0.00, -0.00, -1.00, 610.2, 397.0)">i</text><text xml:space="preserve" font-family="Helvetica" font-size="63.0" fill="#FEFFFF" transform="matrix(1.00, 0.00, -0.00, -1.00, 624.2, 397.0)">c</text><text xml:space="preserve" font-family="Helvetica" font-size="63.0" fill="#FEFFFF" transform="matrix(1.00, 0.00, -0.00, -1.00, 655.7, 397.0)">e</text><text xml:space="preserve" font-family="Helvetica" font-size="63.0" fill="#FEFFFF" transform="matrix(1.00, 0.00, -0.00, -1.00, 690.8, 397.0)">s</text><text xml:space="preserve" font-family="Helvetica-Light" font-size="32.0" fill="#BDBCBA" transform="matrix(1.00, 0.00, -0.00, -1.00, 301.0, 319.0)">U</text><text xml:space="preserve" font-family="Helvetica-Light" font-size="32.0" fill="#BDBCBA" transform="matrix(1.00, 0.00, -0.00, -1.00, 324.1, 319.0)">s</text><text xml:space="preserve" font-family="Helvetica-Light" font-size="32.0" fill="#BDBCBA" transform="matrix(1.00, 0.00, -0.00, -1.00, 340.1, 319.0)">i</text><text xml:space="preserve" font-family="Helvetica-Light" font-size="32.0" fill="#BDBCBA" transform="matrix(1.00, 0.00, -0.00, -1.00, 347.2, 319.0)">n</text><text xml:space="preserve" font-family="Helvetica-Light" font-size="32.0" fill="#BDBCBA" transform="matrix(1.00, 0.00, -0.00, -1.00, 365.0, 319.0)">g</text><text xml:space="preserve" font-family="Helvetica-Light" font-size="32.0" fill="#BDBCBA" transform="matrix(1.00, 0.00, -0.00, -1.00, 384.6, 319.0)"> </text><text xml:space="preserve" font-family="Helvetica-Light" font-size="32.0" fill="#BDBCBA" transform="matrix(1.00, 0.00, -0.00, -1.00, 393.4, 319.0)">t</text><text xml:space="preserve" font-family="Helvetica-Light" font-size="32.0" fill="#BDBCBA" transform="matrix(1.00, 0.00, -0.00, -1.00, 402.3, 319.0)">h</text><text xml:space="preserve" font-family="Helvetica-Light" font-size="32.0" fill="#BDBCBA" transform="matrix(1.00, 0.00, -0.00, -1.00, 420.1, 319.0)">e</text><text xml:space="preserve" font-family="Helvetica-Light" font-size="32.0" fill="#BDBCBA" transform="matrix(1.00, 0.00, -0.00, -1.00, 437.9, 319.0)"> </text><text xml:space="preserve" font-family="Helvetica-Light" font-size="32.0" fill="#BDBCBA" transform="matrix(1.00, 0.00, -0.00, -1.00, 446.8, 319.0)">b</text><text xml:space="preserve" font-family="Helvetica-Light" font-size="32.0" fill="#BDBCBA" transform="matrix(1.00, 0.00, -0.00, -1.00, 466.4, 319.0)">e</text><text xml:space="preserve" font-family="Helvetica-Light" font-size="32.0" fill="#BDBCBA" transform="matrix(1.00, 0.00, -0.00, -1.00, 484.2, 319.0)">a</text><text xml:space="preserve" font-family="Helvetica-Light" font-size="32.0" fill="#BDBCBA" transform="matrix(1.00, 0.00, -0.00, -1.00, 502.0, 319.0)">c</text><text xml:space="preserve" font-family="Helvetica-Light" font-size="32.0" fill="#BDBCBA" transform="matrix(1.00, 0.00, -0.00, -1.00, 519.8, 319.0)">o</text><text xml:space="preserve" font-family="Helvetica-Light" font-size="32.0" fill="#BDBCBA" transform="matrix(1.00, 0.00, -0.00, -1.00, 537.5, 319.0)">n</text><text xml:space="preserve" font-family="Helvetica-Light" font-size="32.0" fill="#BDBCBA" transform="matrix(1.00, 0.00, -0.00, -1.00, 555.3, 319.0)"> </text><text xml:space="preserve" font-family="Helvetica-Light" font-size="32.0" fill="#BDBCBA" transform="matrix(1.00, 0.00, -0.00, -1.00, 564.2, 319.0)">t</text><text xml:space="preserve" font-family="Helvetica-Light" font-size="32.0" fill="#BDBCBA" transform="matrix(1.00, 0.00, -0.00, -1.00, 573.1, 319.0)">e</text><text xml:space="preserve" font-family="Helvetica-Light" font-size="32.0" fill="#BDBCBA" transform="matrix(1.00, 0.00, -0.00, -1.00, 590.9, 319.0)">c</text><text xml:space="preserve" font-family="Helvetica-Light" font-size="32.0" fill="#BDBCBA" transform="matrix(1.00, 0.00, -0.00, -1.00, 608.7, 319.0)">h</text><text xml:space="preserve" font-family="Helvetica-Light" font-size="32.0" fill="#BDBCBA" transform="matrix(1.00, 0.00, -0.00, -1.00, 626.5, 319.0)">n</text><text xml:space="preserve" font-family="Helvetica-Light" font-size="32.0" fill="#BDBCBA" transform="matrix(1.00, 0.00, -0.00, -1.00, 644.3, 319.0)">o</text><text xml:space="preserve" font-family="Helvetica-Light" font-size="32.0" fill="#BDBCBA" transform="matrix(1.00, 0.00, -0.00, -1.00, 662.1, 319.0)">l</text><text xml:space="preserve" font-family="Helvetica-Light" font-size="32.0" fill="#BDBCBA" transform="matrix(1.00, 0.00, -0.00, -1.00, 669.2, 319.0)">o</text><text xml:space="preserve" font-family="Helvetica-Light" font-size="32.0" fill="#BDBCBA" transform="matrix(1.00, 0.00, -0.00, -1.00, 687.0, 319.0)">g</text><text xml:space="preserve" font-family="Helvetica-Light" font-size="32.0" fill="#BDBCBA" transform="matrix(1.00, 0.00, -0.00, -1.00, 706.5, 319.0)">y</text><text xml:space="preserve" font-family="Helvetica-Light" font-size="32.0" fill="#BDBCBA" transform="matrix(1.00, 0.00, -0.00, -1.00, 722.5, 319.0)"> </text><text xml:space="preserve" font-family="Helvetica-Light" font-size="32.0" fill="#BDBCBA" transform="matrix(1.00, 0.00, -0.00, -1.00, 731.4, 319.0)"> </text><text xml:space="preserve" font-family="Helvetica-Light" font-size="36.0" fill="#FFF534" transform="matrix(1.00, 0.00, -0.00, -1.00, 670.1, 114.8)">M</text><text xml:space="preserve" font-family="Helvetica-Light" font-size="36.0" fill="#FFF534" transform="matrix(1.00, 0.00, -0.00, -1.00, 700.1, 114.8)">d</text><text xml:space="preserve" font-family="Helvetica-Light" font-size="36.0" fill="#FFF534" transform="matrix(1.00, 0.00, -0.00, -1.00, 722.1, 114.8)">.</text><text xml:space="preserve" font-family="Helvetica-Light" font-size="36.0" fill="#FFF534" transform="matrix(1.00, 0.00, -0.00, -1.00, 732.1, 114.8)"> </text><text xml:space="preserve" font-family="Helvetica-Light" font-size="36.0" fill="#FFF534" transform="matrix(1.00, 0.00, -0.00, -1.00, 742.1, 114.8)">A</text><text xml:space="preserve" font-family="Helvetica-Light" font-size="36.0" fill="#FFF534" transform="matrix(1.00, 0.00, -0.00, -1.00, 766.1, 114.8)">z</text><text xml:space="preserve" font-family="Helvetica-Light" font-size="36.0" fill="#FFF534" transform="matrix(1.00, 0.00, -0.00, -1.00, 784.1, 114.8)">h</text><text xml:space="preserve" font-family="Helvetica-Light" font-size="36.0" fill="#FFF534" transform="matrix(1.00, 0.00, -0.00, -1.00, 804.1, 114.8)">a</text><text xml:space="preserve" font-family="Helvetica-Light" font-size="36.0" fill="#FFF534" transform="matrix(1.00, 0.00, -0.00, -1.00, 824.2, 114.8)">r</text><text xml:space="preserve" font-family="Helvetica-Light" font-size="36.0" fill="#FFF534" transform="matrix(1.00, 0.00, -0.00, -1.00, 836.2, 114.8)">u</text><text xml:space="preserve" font-family="Helvetica-Light" font-size="36.0" fill="#FFF534" transform="matrix(1.00, 0.00, -0.00, -1.00, 856.2, 114.8)">l</text><text xml:space="preserve" font-family="Helvetica-Light" font-size="36.0" fill="#FFF534" transform="matrix(1.00, 0.00, -0.00, -1.00, 864.2, 114.8)">l</text><text xml:space="preserve" font-family="Helvetica-Light" font-size="36.0" fill="#FFF534" transform="matrix(1.00, 0.00, -0.00, -1.00, 872.2, 114.8)">a</text><text xml:space="preserve" font-family="Helvetica-Light" font-size="36.0" fill="#FFF534" transform="matrix(1.00, 0.00, -0.00, -1.00, 892.2, 114.8)">h</text><text xml:space="preserve" font-family="Helvetica-Light" font-size="36.0" fill="#FFF534" transform="matrix(1.00, 0.00, -0.00, -1.00, 912.2, 114.8)"> </text><text xml:space="preserve" font-family="Helvetica-Light" font-size="36.0" fill="#FFF534" transform="matrix(1.00, 0.00, -0.00, -1.00, 922.2, 114.8)">S</text><text xml:space="preserve" font-family="Helvetica-Light" font-size="36.0" fill="#FFF534" transform="matrix(1.00, 0.00, -0.00, -1.00, 944.2, 114.8)">h</text><text xml:space="preserve" font-family="Helvetica-Light" font-size="36.0" fill="#FFF534" transform="matrix(1.00, 0.00, -0.00, -1.00, 964.2, 114.8)">a</text><text xml:space="preserve" font-family="Helvetica-Light" font-size="36.0" fill="#FFF534" transform="matrix(1.00, 0.00, -0.00, -1.00, 984.2, 114.8)">r</text><text xml:space="preserve" font-family="Helvetica-Light" font-size="36.0" fill="#FFF534" transform="matrix(1.00, 0.00, -0.00, -1.00, 996.2, 114.8)">i</text><text xml:space="preserve" font-family="Helvetica-Light" font-size="36.0" fill="#FFF534" transform="matrix(1.00, 0.00, -0.00, -1.00, 1004.2, 114.8)">f</text><text xml:space="preserve" font-family="Helvetica-Light" font-size="36.0" fill="#FFF534" transform="matrix(1.00, 0.00, -0.00, -1.00, 1013.6, 114.8)">f</text><text xml:space="preserve" font-family="Helvetica-Light" font-size="36.0" fill="#FFF534" transform="matrix(1.00, 0.00, -0.00, -1.00, 1023.6, 114.8)"> </text><text xml:space="preserve" font-family="Helvetica-Light" font-size="36.0" fill="#FEFFFF" transform="matrix(1.00, 0.00, -0.00, -1.00, 733.5, 71.8)">T</text><text xml:space="preserve" font-family="Helvetica-Light" font-size="36.0" fill="#FEFFFF" transform="matrix(1.00, 0.00, -0.00, -1.00, 749.5, 71.8)">e</text><text xml:space="preserve" font-family="Helvetica-Light" font-size="36.0" fill="#FEFFFF" transform="matrix(1.00, 0.00, -0.00, -1.00, 769.5, 71.8)">a</text><text xml:space="preserve" font-family="Helvetica-Light" font-size="36.0" fill="#FEFFFF" transform="matrix(1.00, 0.00, -0.00, -1.00, 789.5, 71.8)">m</text><text xml:space="preserve" font-family="Helvetica-Light" font-size="36.0" fill="#FEFFFF" transform="matrix(1.00, 0.00, -0.00, -1.00, 819.5, 71.8)">:</text><text xml:space="preserve" font-family="Helvetica-Light" font-size="36.0" fill="#FEFFFF" transform="matrix(1.00, 0.00, -0.00, -1.00, 829.5, 71.8)"> </text><text xml:space="preserve" font-family="Helvetica-Light" font-size="36.0" fill="#FFEF5E" transform="matrix(1.00, 0.00, -0.00, -1.00, 839.5, 71.8)">E</text><text xml:space="preserve" font-family="Helvetica-Light" font-size="36.0" fill="#FFEF5E" transform="matrix(1.00, 0.00, -0.00, -1.00, 861.5, 71.8)">d</text><text xml:space="preserve" font-family="Helvetica-Light" font-size="36.0" fill="#FFEF5E" transform="matrix(1.00, 0.00, -0.00, -1.00, 883.5, 71.8)">d</text><text xml:space="preserve" font-family="Helvetica-Light" font-size="36.0" fill="#FFEF5E" transform="matrix(1.00, 0.00, -0.00, -1.00, 905.5, 71.8)">y</text><text xml:space="preserve" font-family="Helvetica-Light" font-size="36.0" fill="#FFEF5E" transform="matrix(1.00, 0.00, -0.00, -1.00, 923.5, 71.8)">s</text><text xml:space="preserve" font-family="Helvetica-Light" font-size="36.0" fill="#FFEF5E" transform="matrix(1.00, 0.00, -0.00, -1.00, 941.5, 71.8)">t</text><text xml:space="preserve" font-family="Helvetica-Light" font-size="36.0" fill="#FFEF5E" transform="matrix(1.00, 0.00, -0.00, -1.00, 951.5, 71.8)">o</text><text xml:space="preserve" font-family="Helvetica-Light" font-size="36.0" fill="#FFEF5E" transform="matrix(1.00, 0.00, -0.00, -1.00, 971.5, 71.8)">n</text><text xml:space="preserve" font-family="Helvetica-Light" font-size="36.0" fill="#FFEF5E" transform="matrix(1.00, 0.00, -0.00, -1.00, 991.6, 71.8)">e</text><text xml:space="preserve" font-family="Helvetica-Light" font-size="36.0" fill="#FFEF5E" transform="matrix(1.00, 0.00, -0.00, -1.00, 1011.6, 71.8)">r</text><text xml:space="preserve" font-family="Helvetica-Light" font-size="36.0" fill="#FEFFFF" transform="matrix(1.00, 0.00, -0.00, -1.00, 1023.6, 71.8)"> </text><text xml:space="preserve" font-family="Helvetica-Light" font-size="36.0" fill="#FEFFFF" transform="matrix(1.00, 0.00, -0.00, -1.00, 637.4, 28.8)">G</text><text xml:space="preserve" font-family="Helvetica-Light" font-size="36.0" fill="#FEFFFF" transform="matrix(1.00, 0.00, -0.00, -1.00, 665.4, 28.8)">u</text><text xml:space="preserve" font-family="Helvetica-Light" font-size="36.0" fill="#FEFFFF" transform="matrix(1.00, 0.00, -0.00, -1.00, 685.5, 28.8)">i</text><text xml:space="preserve" font-family="Helvetica-Light" font-size="36.0" fill="#FEFFFF" transform="matrix(1.00, 0.00, -0.00, -1.00, 693.4, 28.8)">d</text><text xml:space="preserve" font-family="Helvetica-Light" font-size="36.0" fill="#FEFFFF" transform="matrix(1.00, 0.00, -0.00, -1.00, 715.4, 28.8)">e</text><text xml:space="preserve" font-family="Helvetica-Light" font-size="36.0" fill="#FEFFFF" transform="matrix(1.00, 0.00, -0.00, -1.00, 735.5, 28.8)">:</text><text xml:space="preserve" font-family="Helvetica-Light" font-size="36.0" fill="#FEFFFF" transform="matrix(1.00, 0.00, -0.00, -1.00, 745.5, 28.8)"> </text><text xml:space="preserve" font-family="Helvetica-Light" font-size="36.0" fill="#FFEC66" transform="matrix(1.00, 0.00, -0.00, -1.00, 755.5, 28.8)">D</text><text xml:space="preserve" font-family="Helvetica-Light" font-size="36.0" fill="#FFEC66" transform="matrix(1.00, 0.00, -0.00, -1.00, 781.5, 28.8)">r</text><text xml:space="preserve" font-family="Helvetica-Light" font-size="36.0" fill="#FFEC66" transform="matrix(1.00, 0.00, -0.00, -1.00, 790.1, 28.8)">.</text><text xml:space="preserve" font-family="Helvetica-Light" font-size="36.0" fill="#FFEC66" transform="matrix(1.00, 0.00, -0.00, -1.00, 800.2, 28.8)"> </text><text xml:space="preserve" font-family="Helvetica-Light" font-size="36.0" fill="#FFEC66" transform="matrix(1.00, 0.00, -0.00, -1.00, 810.2, 28.8)">V</text><text xml:space="preserve" font-family="Helvetica-Light" font-size="36.0" fill="#FFEC66" transform="matrix(1.00, 0.00, -0.00, -1.00, 831.5, 28.8)">i</text><text xml:space="preserve" font-family="Helvetica-Light" font-size="36.0" fill="#FFEC66" transform="matrix(1.00, 0.00, -0.00, -1.00, 839.5, 28.8)">n</text><text xml:space="preserve" font-family="Helvetica-Light" font-size="36.0" fill="#FFEC66" transform="matrix(1.00, 0.00, -0.00, -1.00, 859.5, 28.8)">o</text><text xml:space="preserve" font-family="Helvetica-Light" font-size="36.0" fill="#FFEC66" transform="matrix(1.00, 0.00, -0.00, -1.00, 879.5, 28.8)">d</text><text xml:space="preserve" font-family="Helvetica-Light" font-size="36.0" fill="#FFEC66" transform="matrix(1.00, 0.00, -0.00, -1.00, 901.5, 28.8)"> </text><text xml:space="preserve" font-family="Helvetica-Light" font-size="36.0" fill="#FFEC66" transform="matrix(1.00, 0.00, -0.00, -1.00, 911.5, 28.8)">P</text><text xml:space="preserve" font-family="Helvetica-Light" font-size="36.0" fill="#FFEC66" transform="matrix(1.00, 0.00, -0.00, -1.00, 933.5, 28.8)">a</text><text xml:space="preserve" font-family="Helvetica-Light" font-size="36.0" fill="#FFEC66" transform="matrix(1.00, 0.00, -0.00, -1.00, 953.5, 28.8)">t</text><text xml:space="preserve" font-family="Helvetica-Light" font-size="36.0" fill="#FFEC66" transform="matrix(1.00, 0.00, -0.00, -1.00, 963.6, 28.8)">h</text><text xml:space="preserve" font-family="Helvetica-Light" font-size="36.0" fill="#FFEC66" transform="matrix(1.00, 0.00, -0.00, -1.00, 983.6, 28.8)">a</text><text xml:space="preserve" font-family="Helvetica-Light" font-size="36.0" fill="#FFEC66" transform="matrix(1.00, 0.00, -0.00, -1.00, 1003.6, 28.8)">r</text><text xml:space="preserve" font-family="Helvetica-Light" font-size="36.0" fill="#FFEC66" transform="matrix(1.00, 0.00, -0.00, -1.00, 1015.6, 28.8)">i</text><text xml:space="preserve" font-family="Helvetica-Light" font-size="18.0" fill="#FEFFFF" transform="matrix(1.00, 0.00, -0.00, -1.00, 506.0, 17.0)">1</text></g></svg>