<?xml version="1.0" encoding="UTF-8" standalone="no"?><svg xmlns="http://www.w3.org/2000/svg" xmlns:xlink="http://www.w3.org/1999/xlink" clip-rule="evenodd" stroke-miterlimit="4.00" viewBox="0 0 1024 768"><desc>SVG generated by Keynote</desc><defs></defs><g transform="matrix(1.00, 0.00, -0.00, -1.00, 0.0, 768.0)"><path d="M 0.0 768.0 L 1024.0 768.0 L 1024.0 0.0 L 0.0 0.0 Z M 0.0 768.0 " fill="#000000"></path><text xml:space="preserve" font-family="Helvetica-Light" font-size="60.0" fill="#E57D1F" transform="matrix(1.00, 0.00, -0.00, -1.00, 275.0, 641.0)">T</text><text xml:space="preserve" font-family="Helvetica-Light" font-size="60.0" fill="#E57D1F" transform="matrix(1.00, 0.00, -0.00, -1.00, 301.7, 641.0)">e</text><text xml:space="preserve" font-family="Helvetica-Light" font-size="60.0" fill="#E57D1F" transform="matrix(1.00, 0.00, -0.00, -1.00, 335.1, 641.0)">c</text><text xml:space="preserve" font-family="Helvetica-Light" font-size="60.0" fill="#E57D1F" transform="matrix(1.00, 0.00, -0.00, -1.00, 368.4, 641.0)">h</text><text xml:space="preserve" font-family="Helvetica-Light" font-size="60.0" fill="#E57D1F" transform="matrix(1.00, 0.00, -0.00, -1.00, 401.8, 641.0)">n</text><text xml:space="preserve" font-family="Helvetica-Light" font-size="60.0" fill="#E57D1F" transform="matrix(1.00, 0.00, -0.00, -1.00, 435.1, 641.0)">o</text><text xml:space="preserve" font-family="Helvetica-Light" font-size="60.0" fill="#E57D1F" transform="matrix(1.00, 0.00, -0.00, -1.00, 468.5, 641.0)">l</text><text xml:space="preserve" font-family="Helvetica-Light" font-size="60.0" fill="#E57D1F" transform="matrix(1.00, 0.00, -0.00, -1.00, 481.8, 641.0)">o</text><text xml:space="preserve" font-family="Helvetica-Light" font-size="60.0" fill="#E57D1F" transform="matrix(1.00, 0.00, -0.00, -1.00, 515.2, 641.0)">g</text><text xml:space="preserve" font-family="Helvetica-Light" font-size="60.0" fill="#E57D1F" transform="matrix(1.00, 0.00, -0.00, -1.00, 551.8, 641.0)">y</text><text xml:space="preserve" font-family="Helvetica-Light" font-size="60.0" fill="#E57D1F" transform="matrix(1.00, 0.00, -0.00, -1.00, 581.8, 641.0)"> </text><text xml:space="preserve" font-family="Helvetica-Light" font-size="60.0" fill="#E57D1F" transform="matrix(1.00, 0.00, -0.00, -1.00, 598.5, 641.0)">S</text><text xml:space="preserve" font-family="Helvetica-Light" font-size="60.0" fill="#E57D1F" transform="matrix(1.00, 0.00, -0.00, -1.00, 635.2, 641.0)">t</text><text xml:space="preserve" font-family="Helvetica-Light" font-size="60.0" fill="#E57D1F" transform="matrix(1.00, 0.00, -0.00, -1.00, 651.9, 641.0)">a</text><text xml:space="preserve" font-family="Helvetica-Light" font-size="60.0" fill="#E57D1F" transform="matrix(1.00, 0.00, -0.00, -1.00, 685.2, 641.0)">c</text><text xml:space="preserve" font-family="Helvetica-Light" font-size="60.0" fill="#E57D1F" transform="matrix(1.00, 0.00, -0.00, -1.00, 718.6, 641.0)">k</text><text xml:space="preserve" font-family="Avenir-Book" font-size="21.0" fill="#FEFFFF" transform="matrix(1.00, 0.00, -0.00, -1.00, 79.0, 449.2)">•</text><text xml:space="preserve" font-family="Avenir-Book" font-size="28.0" fill="#FFF247" transform="matrix(1.00, 0.00, -0.00, -1.00, 106.0, 447.0)">I</text><text xml:space="preserve" font-family="Avenir-Book" font-size="28.0" fill="#FFF247" transform="matrix(1.00, 0.00, -0.00, -1.00, 113.4, 447.0)">o</text><text xml:space="preserve" font-family="Avenir-Book" font-size="28.0" fill="#FFF247" transform="matrix(1.00, 0.00, -0.00, -1.00, 130.0, 447.0)">n</text><text xml:space="preserve" font-family="Avenir-Book" font-size="28.0" fill="#FFF247" transform="matrix(1.00, 0.00, -0.00, -1.00, 145.6, 447.0)">i</text><text xml:space="preserve" font-family="Avenir-Book" font-size="28.0" fill="#FFF247" transform="matrix(1.00, 0.00, -0.00, -1.00, 152.3, 447.0)">c</text><text xml:space="preserve" font-family="Avenir-Book" font-size="28.0" fill="#FFF247" transform="matrix(1.00, 0.00, -0.00, -1.00, 165.8, 447.0)"> </text><text xml:space="preserve" font-family="Avenir-Book" font-size="28.0" fill="#FFF247" transform="matrix(1.00, 0.00, -0.00, -1.00, 173.6, 447.0)">f</text><text xml:space="preserve" font-family="Avenir-Book" font-size="28.0" fill="#FFF247" transform="matrix(1.00, 0.00, -0.00, -1.00, 181.9, 447.0)">r</text><text xml:space="preserve" font-family="Avenir-Book" font-size="28.0" fill="#FFF247" transform="matrix(1.00, 0.00, -0.00, -1.00, 191.1, 447.0)">a</text><text xml:space="preserve" font-family="Avenir-Book" font-size="28.0" fill="#FFF247" transform="matrix(1.00, 0.00, -0.00, -1.00, 205.7, 447.0)">m</text><text xml:space="preserve" font-family="Avenir-Book" font-size="28.0" fill="#FFF247" transform="matrix(1.00, 0.00, -0.00, -1.00, 229.5, 447.0)">e</text><text xml:space="preserve" font-family="Avenir-Book" font-size="28.0" fill="#FFF247" transform="matrix(1.00, 0.00, -0.00, -1.00, 245.1, 447.0)">w</text><text xml:space="preserve" font-family="Avenir-Book" font-size="28.0" fill="#FFF247" transform="matrix(1.00, 0.00, -0.00, -1.00, 265.3, 447.0)">o</text><text xml:space="preserve" font-family="Avenir-Book" font-size="28.0" fill="#FFF247" transform="matrix(1.00, 0.00, -0.00, -1.00, 281.9, 447.0)">r</text><text xml:space="preserve" font-family="Avenir-Book" font-size="28.0" fill="#FFF247" transform="matrix(1.00, 0.00, -0.00, -1.00, 291.2, 447.0)">k</text><text xml:space="preserve" font-family="Avenir-Book" font-size="28.0" fill="#FEFFFF" transform="matrix(1.00, 0.00, -0.00, -1.00, 304.7, 447.0)"> </text><text xml:space="preserve" font-family="Avenir-Book" font-size="28.0" fill="#FEFFFF" transform="matrix(1.00, 0.00, -0.00, -1.00, 312.5, 447.0)">f</text><text xml:space="preserve" font-family="Avenir-Book" font-size="28.0" fill="#FEFFFF" transform="matrix(1.00, 0.00, -0.00, -1.00, 320.8, 447.0)">o</text><text xml:space="preserve" font-family="Avenir-Book" font-size="28.0" fill="#FEFFFF" transform="matrix(1.00, 0.00, -0.00, -1.00, 337.4, 447.0)">r</text><text xml:space="preserve" font-family="Avenir-Book" font-size="28.0" fill="#FEFFFF" transform="matrix(1.00, 0.00, -0.00, -1.00, 346.7, 447.0)"> </text><text xml:space="preserve" font-family="Avenir-Book" font-size="28.0" fill="#FEFFFF" transform="matrix(1.00, 0.00, -0.00, -1.00, 354.5, 447.0)">a</text><text xml:space="preserve" font-family="Avenir-Book" font-size="28.0" fill="#FEFFFF" transform="matrix(1.00, 0.00, -0.00, -1.00, 369.0, 447.0)">p</text><text xml:space="preserve" font-family="Avenir-Book" font-size="28.0" fill="#FEFFFF" transform="matrix(1.00, 0.00, -0.00, -1.00, 386.1, 447.0)">p</text><text xml:space="preserve" font-family="Avenir-Book" font-size="28.0" fill="#FEFFFF" transform="matrix(1.00, 0.00, -0.00, -1.00, 403.2, 447.0)">l</text><text xml:space="preserve" font-family="Avenir-Book" font-size="28.0" fill="#FEFFFF" transform="matrix(1.00, 0.00, -0.00, -1.00, 409.9, 447.0)">i</text><text xml:space="preserve" font-family="Avenir-Book" font-size="28.0" fill="#FEFFFF" transform="matrix(1.00, 0.00, -0.00, -1.00, 416.7, 447.0)">c</text><text xml:space="preserve" font-family="Avenir-Book" font-size="28.0" fill="#FEFFFF" transform="matrix(1.00, 0.00, -0.00, -1.00, 430.2, 447.0)">a</text><text xml:space="preserve" font-family="Avenir-Book" font-size="28.0" fill="#FEFFFF" transform="matrix(1.00, 0.00, -0.00, -1.00, 444.7, 447.0)">t</text><text xml:space="preserve" font-family="Avenir-Book" font-size="28.0" fill="#FEFFFF" transform="matrix(1.00, 0.00, -0.00, -1.00, 454.0, 447.0)">i</text><text xml:space="preserve" font-family="Avenir-Book" font-size="28.0" fill="#FEFFFF" transform="matrix(1.00, 0.00, -0.00, -1.00, 460.7, 447.0)">o</text><text xml:space="preserve" font-family="Avenir-Book" font-size="28.0" fill="#FEFFFF" transform="matrix(1.00, 0.00, -0.00, -1.00, 477.3, 447.0)">n</text><text xml:space="preserve" font-family="Avenir-Book" font-size="28.0" fill="#FEFFFF" transform="matrix(1.00, 0.00, -0.00, -1.00, 492.9, 447.0)"> </text><text xml:space="preserve" font-family="Avenir-Book" font-size="28.0" fill="#FEFFFF" transform="matrix(1.00, 0.00, -0.00, -1.00, 500.7, 447.0)">d</text><text xml:space="preserve" font-family="Avenir-Book" font-size="28.0" fill="#FEFFFF" transform="matrix(1.00, 0.00, -0.00, -1.00, 517.8, 447.0)">e</text><text xml:space="preserve" font-family="Avenir-Book" font-size="28.0" fill="#FEFFFF" transform="matrix(1.00, 0.00, -0.00, -1.00, 533.3, 447.0)">v</text><text xml:space="preserve" font-family="Avenir-Book" font-size="28.0" fill="#FEFFFF" transform="matrix(1.00, 0.00, -0.00, -1.00, 546.8, 447.0)">e</text><text xml:space="preserve" font-family="Avenir-Book" font-size="28.0" fill="#FEFFFF" transform="matrix(1.00, 0.00, -0.00, -1.00, 562.4, 447.0)">l</text><text xml:space="preserve" font-family="Avenir-Book" font-size="28.0" fill="#FEFFFF" transform="matrix(1.00, 0.00, -0.00, -1.00, 569.1, 447.0)">o</text><text xml:space="preserve" font-family="Avenir-Book" font-size="28.0" fill="#FEFFFF" transform="matrix(1.00, 0.00, -0.00, -1.00, 585.7, 447.0)">p</text><text xml:space="preserve" font-family="Avenir-Book" font-size="28.0" fill="#FEFFFF" transform="matrix(1.00, 0.00, -0.00, -1.00, 602.8, 447.0)">m</text><text xml:space="preserve" font-family="Avenir-Book" font-size="28.0" fill="#FEFFFF" transform="matrix(1.00, 0.00, -0.00, -1.00, 626.7, 447.0)">e</text><text xml:space="preserve" font-family="Avenir-Book" font-size="28.0" fill="#FEFFFF" transform="matrix(1.00, 0.00, -0.00, -1.00, 642.3, 447.0)">n</text><text xml:space="preserve" font-family="Avenir-Book" font-size="28.0" fill="#FEFFFF" transform="matrix(1.00, 0.00, -0.00, -1.00, 657.8, 447.0)">t</text><text xml:space="preserve" font-family="Avenir-Book" font-size="28.0" fill="#FEFFFF" transform="matrix(1.00, 0.00, -0.00, -1.00, 667.1, 447.0)"> </text><text xml:space="preserve" font-family="Avenir-Book" font-size="21.0" fill="#FEFFFF" transform="matrix(1.00, 0.00, -0.00, -1.00, 79.0, 379.2)">•</text><text xml:space="preserve" font-family="Avenir-Book" font-size="28.0" fill="#FEFFFF" transform="matrix(1.00, 0.00, -0.00, -1.00, 106.0, 377.0)">G</text><text xml:space="preserve" font-family="Avenir-Book" font-size="28.0" fill="#FEFFFF" transform="matrix(1.00, 0.00, -0.00, -1.00, 127.8, 377.0)">o</text><text xml:space="preserve" font-family="Avenir-Book" font-size="28.0" fill="#FEFFFF" transform="matrix(1.00, 0.00, -0.00, -1.00, 144.4, 377.0)">o</text><text xml:space="preserve" font-family="Avenir-Book" font-size="28.0" fill="#FEFFFF" transform="matrix(1.00, 0.00, -0.00, -1.00, 161.0, 377.0)">g</text><text xml:space="preserve" font-family="Avenir-Book" font-size="28.0" fill="#FEFFFF" transform="matrix(1.00, 0.00, -0.00, -1.00, 178.1, 377.0)">l</text><text xml:space="preserve" font-family="Avenir-Book" font-size="28.0" fill="#FEFFFF" transform="matrix(1.00, 0.00, -0.00, -1.00, 184.8, 377.0)">e</text><text xml:space="preserve" font-family="Avenir-Book" font-size="28.0" fill="#FEFFFF" transform="matrix(1.00, 0.00, -0.00, -1.00, 200.4, 377.0)"> </text><text xml:space="preserve" font-family="Avenir-Book" font-size="28.0" fill="#FEFFFF" transform="matrix(1.00, 0.00, -0.00, -1.00, 208.2, 377.0)">d</text><text xml:space="preserve" font-family="Avenir-Book" font-size="28.0" fill="#FEFFFF" transform="matrix(1.00, 0.00, -0.00, -1.00, 225.3, 377.0)">e</text><text xml:space="preserve" font-family="Avenir-Book" font-size="28.0" fill="#FEFFFF" transform="matrix(1.00, 0.00, -0.00, -1.00, 240.8, 377.0)">v</text><text xml:space="preserve" font-family="Avenir-Book" font-size="28.0" fill="#FEFFFF" transform="matrix(1.00, 0.00, -0.00, -1.00, 254.3, 377.0)">e</text><text xml:space="preserve" font-family="Avenir-Book" font-size="28.0" fill="#FEFFFF" transform="matrix(1.00, 0.00, -0.00, -1.00, 269.9, 377.0)">l</text><text xml:space="preserve" font-family="Avenir-Book" font-size="28.0" fill="#FEFFFF" transform="matrix(1.00, 0.00, -0.00, -1.00, 276.6, 377.0)">o</text><text xml:space="preserve" font-family="Avenir-Book" font-size="28.0" fill="#FEFFFF" transform="matrix(1.00, 0.00, -0.00, -1.00, 293.2, 377.0)">p</text><text xml:space="preserve" font-family="Avenir-Book" font-size="28.0" fill="#FEFFFF" transform="matrix(1.00, 0.00, -0.00, -1.00, 310.3, 377.0)">e</text><text xml:space="preserve" font-family="Avenir-Book" font-size="28.0" fill="#FEFFFF" transform="matrix(1.00, 0.00, -0.00, -1.00, 325.9, 377.0)">r</text><text xml:space="preserve" font-family="Avenir-Book" font-size="28.0" fill="#FEFFFF" transform="matrix(1.00, 0.00, -0.00, -1.00, 335.2, 377.0)">s</text><text xml:space="preserve" font-family="Avenir-Book" font-size="28.0" fill="#FEFFFF" transform="matrix(1.00, 0.00, -0.00, -1.00, 347.1, 377.0)"> </text><text xml:space="preserve" font-family="Avenir-Book" font-size="28.0" fill="#FEFFFF" transform="matrix(1.00, 0.00, -0.00, -1.00, 354.9, 377.0)">B</text><text xml:space="preserve" font-family="Avenir-Book" font-size="28.0" fill="#FEFFFF" transform="matrix(1.00, 0.00, -0.00, -1.00, 372.6, 377.0)">e</text><text xml:space="preserve" font-family="Avenir-Book" font-size="28.0" fill="#FEFFFF" transform="matrix(1.00, 0.00, -0.00, -1.00, 388.1, 377.0)">a</text><text xml:space="preserve" font-family="Avenir-Book" font-size="28.0" fill="#FEFFFF" transform="matrix(1.00, 0.00, -0.00, -1.00, 402.7, 377.0)">c</text><text xml:space="preserve" font-family="Avenir-Book" font-size="28.0" fill="#FEFFFF" transform="matrix(1.00, 0.00, -0.00, -1.00, 416.2, 377.0)">o</text><text xml:space="preserve" font-family="Avenir-Book" font-size="28.0" fill="#FEFFFF" transform="matrix(1.00, 0.00, -0.00, -1.00, 432.8, 377.0)">n</text><text xml:space="preserve" font-family="Avenir-Book" font-size="28.0" fill="#FEFFFF" transform="matrix(1.00, 0.00, -0.00, -1.00, 448.3, 377.0)">s</text><text xml:space="preserve" font-family="Avenir-Book" font-size="28.0" fill="#FEFFFF" transform="matrix(1.00, 0.00, -0.00, -1.00, 460.3, 377.0)"> </text><text xml:space="preserve" font-family="Avenir-Book" font-size="28.0" fill="#FEFFFF" transform="matrix(1.00, 0.00, -0.00, -1.00, 468.0, 377.0)">A</text><text xml:space="preserve" font-family="Avenir-Book" font-size="28.0" fill="#FEFFFF" transform="matrix(1.00, 0.00, -0.00, -1.00, 487.2, 377.0)">P</text><text xml:space="preserve" font-family="Avenir-Book" font-size="28.0" fill="#FEFFFF" transform="matrix(1.00, 0.00, -0.00, -1.00, 503.3, 377.0)">I</text><text xml:space="preserve" font-family="Avenir-Book" font-size="28.0" fill="#FEFFFF" transform="matrix(1.00, 0.00, -0.00, -1.00, 510.7, 377.0)"> </text><text xml:space="preserve" font-family="Avenir-Book" font-size="28.0" fill="#FEFFFF" transform="matrix(1.00, 0.00, -0.00, -1.00, 518.5, 377.0)">t</text><text xml:space="preserve" font-family="Avenir-Book" font-size="28.0" fill="#FEFFFF" transform="matrix(1.00, 0.00, -0.00, -1.00, 527.8, 377.0)">o</text><text xml:space="preserve" font-family="Avenir-Book" font-size="28.0" fill="#FEFFFF" transform="matrix(1.00, 0.00, -0.00, -1.00, 544.4, 377.0)"> </text><text xml:space="preserve" font-family="Avenir-Book" font-size="28.0" fill="#FEFFFF" transform="matrix(1.00, 0.00, -0.00, -1.00, 552.2, 377.0)">m</text><text xml:space="preserve" font-family="Avenir-Book" font-size="28.0" fill="#FEFFFF" transform="matrix(1.00, 0.00, -0.00, -1.00, 576.0, 377.0)">a</text><text xml:space="preserve" font-family="Avenir-Book" font-size="28.0" fill="#FEFFFF" transform="matrix(1.00, 0.00, -0.00, -1.00, 590.6, 377.0)">n</text><text xml:space="preserve" font-family="Avenir-Book" font-size="28.0" fill="#FEFFFF" transform="matrix(1.00, 0.00, -0.00, -1.00, 606.1, 377.0)">a</text><text xml:space="preserve" font-family="Avenir-Book" font-size="28.0" fill="#FEFFFF" transform="matrix(1.00, 0.00, -0.00, -1.00, 620.7, 377.0)">g</text><text xml:space="preserve" font-family="Avenir-Book" font-size="28.0" fill="#FEFFFF" transform="matrix(1.00, 0.00, -0.00, -1.00, 637.8, 377.0)">e</text><text xml:space="preserve" font-family="Avenir-Book" font-size="28.0" fill="#FEFFFF" transform="matrix(1.00, 0.00, -0.00, -1.00, 653.3, 377.0)"> </text><text xml:space="preserve" font-family="Avenir-Book" font-size="28.0" fill="#FEFFFF" transform="matrix(1.00, 0.00, -0.00, -1.00, 661.1, 377.0)">t</text><text xml:space="preserve" font-family="Avenir-Book" font-size="28.0" fill="#FEFFFF" transform="matrix(1.00, 0.00, -0.00, -1.00, 670.4, 377.0)">h</text><text xml:space="preserve" font-family="Avenir-Book" font-size="28.0" fill="#FEFFFF" transform="matrix(1.00, 0.00, -0.00, -1.00, 686.0, 377.0)">e</text><text xml:space="preserve" font-family="Avenir-Book" font-size="28.0" fill="#FEFFFF" transform="matrix(1.00, 0.00, -0.00, -1.00, 701.6, 377.0)"> </text><text xml:space="preserve" font-family="Avenir-Book" font-size="28.0" fill="#FEFFFF" transform="matrix(1.00, 0.00, -0.00, -1.00, 709.3, 377.0)">b</text><text xml:space="preserve" font-family="Avenir-Book" font-size="28.0" fill="#FEFFFF" transform="matrix(1.00, 0.00, -0.00, -1.00, 726.5, 377.0)">e</text><text xml:space="preserve" font-family="Avenir-Book" font-size="28.0" fill="#FEFFFF" transform="matrix(1.00, 0.00, -0.00, -1.00, 742.0, 377.0)">a</text><text xml:space="preserve" font-family="Avenir-Book" font-size="28.0" fill="#FEFFFF" transform="matrix(1.00, 0.00, -0.00, -1.00, 756.6, 377.0)">c</text><text xml:space="preserve" font-family="Avenir-Book" font-size="28.0" fill="#FEFFFF" transform="matrix(1.00, 0.00, -0.00, -1.00, 770.0, 377.0)">o</text><text xml:space="preserve" font-family="Avenir-Book" font-size="28.0" fill="#FEFFFF" transform="matrix(1.00, 0.00, -0.00, -1.00, 786.7, 377.0)">n</text><text xml:space="preserve" font-family="Avenir-Book" font-size="28.0" fill="#FEFFFF" transform="matrix(1.00, 0.00, -0.00, -1.00, 802.2, 377.0)">s</text><text xml:space="preserve" font-family="Avenir-Book" font-size="28.0" fill="#FEFFFF" transform="matrix(1.00, 0.00, -0.00, -1.00, 814.1, 377.0)"> </text><text xml:space="preserve" font-family="Avenir-Book" font-size="21.0" fill="#FEFFFF" transform="matrix(1.00, 0.00, -0.00, -1.00, 79.0, 309.2)">•</text><text xml:space="preserve" font-family="Avenir-Book" font-size="28.0" fill="#FEFFFF" transform="matrix(1.00, 0.00, -0.00, -1.00, 106.0, 307.0)">C</text><text xml:space="preserve" font-family="Avenir-Book" font-size="28.0" fill="#FEFFFF" transform="matrix(1.00, 0.00, -0.00, -1.00, 125.7, 307.0)">o</text><text xml:space="preserve" font-family="Avenir-Book" font-size="28.0" fill="#FEFFFF" transform="matrix(1.00, 0.00, -0.00, -1.00, 142.3, 307.0)">r</text><text xml:space="preserve" font-family="Avenir-Book" font-size="28.0" fill="#FEFFFF" transform="matrix(1.00, 0.00, -0.00, -1.00, 151.1, 307.0)">d</text><text xml:space="preserve" font-family="Avenir-Book" font-size="28.0" fill="#FEFFFF" transform="matrix(1.00, 0.00, -0.00, -1.00, 168.2, 307.0)">o</text><text xml:space="preserve" font-family="Avenir-Book" font-size="28.0" fill="#FEFFFF" transform="matrix(1.00, 0.00, -0.00, -1.00, 184.8, 307.0)">v</text><text xml:space="preserve" font-family="Avenir-Book" font-size="28.0" fill="#FEFFFF" transform="matrix(1.00, 0.00, -0.00, -1.00, 198.3, 307.0)">a</text><text xml:space="preserve" font-family="Avenir-Book" font-size="28.0" fill="#FEFFFF" transform="matrix(1.00, 0.00, -0.00, -1.00, 212.8, 307.0)"> </text><text xml:space="preserve" font-family="Avenir-Book" font-size="28.0" fill="#FEFFFF" transform="matrix(1.00, 0.00, -0.00, -1.00, 220.6, 307.0)">p</text><text xml:space="preserve" font-family="Avenir-Book" font-size="28.0" fill="#FEFFFF" transform="matrix(1.00, 0.00, -0.00, -1.00, 237.7, 307.0)">l</text><text xml:space="preserve" font-family="Avenir-Book" font-size="28.0" fill="#FEFFFF" transform="matrix(1.00, 0.00, -0.00, -1.00, 244.5, 307.0)">u</text><text xml:space="preserve" font-family="Avenir-Book" font-size="28.0" fill="#FEFFFF" transform="matrix(1.00, 0.00, -0.00, -1.00, 260.0, 307.0)">g</text><text xml:space="preserve" font-family="Avenir-Book" font-size="28.0" fill="#FEFFFF" transform="matrix(1.00, 0.00, -0.00, -1.00, 277.1, 307.0)">i</text><text xml:space="preserve" font-family="Avenir-Book" font-size="28.0" fill="#FEFFFF" transform="matrix(1.00, 0.00, -0.00, -1.00, 283.9, 307.0)">n</text><text xml:space="preserve" font-family="Avenir-Book" font-size="28.0" fill="#FEFFFF" transform="matrix(1.00, 0.00, -0.00, -1.00, 299.4, 307.0)">s</text><text xml:space="preserve" font-family="Avenir-Book" font-size="28.0" fill="#FEFFFF" transform="matrix(1.00, 0.00, -0.00, -1.00, 311.4, 307.0)"> </text><text xml:space="preserve" font-family="Avenir-Book" font-size="28.0" fill="#FEFFFF" transform="matrix(1.00, 0.00, -0.00, -1.00, 319.1, 307.0)">f</text><text xml:space="preserve" font-family="Avenir-Book" font-size="28.0" fill="#FEFFFF" transform="matrix(1.00, 0.00, -0.00, -1.00, 327.4, 307.0)">o</text><text xml:space="preserve" font-family="Avenir-Book" font-size="28.0" fill="#FEFFFF" transform="matrix(1.00, 0.00, -0.00, -1.00, 344.0, 307.0)">r</text><text xml:space="preserve" font-family="Avenir-Book" font-size="28.0" fill="#FEFFFF" transform="matrix(1.00, 0.00, -0.00, -1.00, 353.3, 307.0)"> </text><text xml:space="preserve" font-family="Avenir-Book" font-size="28.0" fill="#FEFFFF" transform="matrix(1.00, 0.00, -0.00, -1.00, 361.1, 307.0)">t</text><text xml:space="preserve" font-family="Avenir-Book" font-size="28.0" fill="#FEFFFF" transform="matrix(1.00, 0.00, -0.00, -1.00, 370.4, 307.0)">h</text><text xml:space="preserve" font-family="Avenir-Book" font-size="28.0" fill="#FEFFFF" transform="matrix(1.00, 0.00, -0.00, -1.00, 386.0, 307.0)">e</text><text xml:space="preserve" font-family="Avenir-Book" font-size="28.0" fill="#FEFFFF" transform="matrix(1.00, 0.00, -0.00, -1.00, 401.5, 307.0)"> </text><text xml:space="preserve" font-family="Avenir-Book" font-size="28.0" fill="#FEFFFF" transform="matrix(1.00, 0.00, -0.00, -1.00, 409.3, 307.0)">B</text><text xml:space="preserve" font-family="Avenir-Book" font-size="28.0" fill="#FEFFFF" transform="matrix(1.00, 0.00, -0.00, -1.00, 427.0, 307.0)">e</text><text xml:space="preserve" font-family="Avenir-Book" font-size="28.0" fill="#FEFFFF" transform="matrix(1.00, 0.00, -0.00, -1.00, 442.5, 307.0)">a</text><text xml:space="preserve" font-family="Avenir-Book" font-size="28.0" fill="#FEFFFF" transform="matrix(1.00, 0.00, -0.00, -1.00, 457.1, 307.0)">c</text><text xml:space="preserve" font-family="Avenir-Book" font-size="28.0" fill="#FEFFFF" transform="matrix(1.00, 0.00, -0.00, -1.00, 470.6, 307.0)">o</text><text xml:space="preserve" font-family="Avenir-Book" font-size="28.0" fill="#FEFFFF" transform="matrix(1.00, 0.00, -0.00, -1.00, 487.2, 307.0)">n</text><text xml:space="preserve" font-family="Avenir-Book" font-size="28.0" fill="#FEFFFF" transform="matrix(1.00, 0.00, -0.00, -1.00, 502.7, 307.0)">s</text><text xml:space="preserve" font-family="Avenir-Book" font-size="28.0" fill="#FEFFFF" transform="matrix(1.00, 0.00, -0.00, -1.00, 514.7, 307.0)"> </text><text xml:space="preserve" font-family="Avenir-Book" font-size="28.0" fill="#FEFFFF" transform="matrix(1.00, 0.00, -0.00, -1.00, 522.4, 307.0)">S</text><text xml:space="preserve" font-family="Avenir-Book" font-size="28.0" fill="#FEFFFF" transform="matrix(1.00, 0.00, -0.00, -1.00, 538.0, 307.0)">D</text><text xml:space="preserve" font-family="Avenir-Book" font-size="28.0" fill="#FEFFFF" transform="matrix(1.00, 0.00, -0.00, -1.00, 558.8, 307.0)">K</text><text xml:space="preserve" font-family="Avenir-Book" font-size="28.0" fill="#FEFFFF" transform="matrix(1.00, 0.00, -0.00, -1.00, 576.4, 307.0)"> </text><text xml:space="preserve" font-family="Avenir-Book" font-size="21.0" fill="#FEFFFF" transform="matrix(1.00, 0.00, -0.00, -1.00, 79.0, 239.2)">•</text><text xml:space="preserve" font-family="Avenir-Book" font-size="28.0" fill="#FFE500" transform="matrix(1.00, 0.00, -0.00, -1.00, 106.0, 237.0)">P</text><text xml:space="preserve" font-family="Avenir-Book" font-size="28.0" fill="#FFE500" transform="matrix(1.00, 0.00, -0.00, -1.00, 122.1, 237.0)">y</text><text xml:space="preserve" font-family="Avenir-Book" font-size="28.0" fill="#FFE500" transform="matrix(1.00, 0.00, -0.00, -1.00, 135.6, 237.0)">t</text><text xml:space="preserve" font-family="Avenir-Book" font-size="28.0" fill="#FFE500" transform="matrix(1.00, 0.00, -0.00, -1.00, 144.9, 237.0)">h</text><text xml:space="preserve" font-family="Avenir-Book" font-size="28.0" fill="#FFE500" transform="matrix(1.00, 0.00, -0.00, -1.00, 160.4, 237.0)">o</text><text xml:space="preserve" font-family="Avenir-Book" font-size="28.0" fill="#FFE500" transform="matrix(1.00, 0.00, -0.00, -1.00, 177.0, 237.0)">n</text><text xml:space="preserve" font-family="Avenir-Book" font-size="28.0" fill="#FFE500" transform="matrix(1.00, 0.00, -0.00, -1.00, 192.6, 237.0)"> </text><text xml:space="preserve" font-family="Avenir-Book" font-size="28.0" fill="#FFE500" transform="matrix(1.00, 0.00, -0.00, -1.00, 200.4, 237.0)">F</text><text xml:space="preserve" font-family="Avenir-Book" font-size="28.0" fill="#FFE500" transform="matrix(1.00, 0.00, -0.00, -1.00, 216.0, 237.0)">l</text><text xml:space="preserve" font-family="Avenir-Book" font-size="28.0" fill="#FFE500" transform="matrix(1.00, 0.00, -0.00, -1.00, 222.7, 237.0)">a</text><text xml:space="preserve" font-family="Avenir-Book" font-size="28.0" fill="#FFE500" transform="matrix(1.00, 0.00, -0.00, -1.00, 237.2, 237.0)">s</text><text xml:space="preserve" font-family="Avenir-Book" font-size="28.0" fill="#FFE500" transform="matrix(1.00, 0.00, -0.00, -1.00, 249.1, 237.0)">k</text><text xml:space="preserve" font-family="Avenir-Book" font-size="28.0" fill="#FEFFFF" transform="matrix(1.00, 0.00, -0.00, -1.00, 262.6, 237.0)"> </text><text xml:space="preserve" font-family="Avenir-Book" font-size="28.0" fill="#FEFFFF" transform="matrix(1.00, 0.00, -0.00, -1.00, 270.4, 237.0)">a</text><text xml:space="preserve" font-family="Avenir-Book" font-size="28.0" fill="#FEFFFF" transform="matrix(1.00, 0.00, -0.00, -1.00, 284.9, 237.0)">n</text><text xml:space="preserve" font-family="Avenir-Book" font-size="28.0" fill="#FEFFFF" transform="matrix(1.00, 0.00, -0.00, -1.00, 300.5, 237.0)">d</text><text xml:space="preserve" font-family="Avenir-Book" font-size="28.0" fill="#FEFFFF" transform="matrix(1.00, 0.00, -0.00, -1.00, 317.6, 237.0)"> </text><text xml:space="preserve" font-family="Avenir-Book" font-size="28.0" fill="#FFE500" transform="matrix(1.00, 0.00, -0.00, -1.00, 325.4, 237.0)">B</text><text xml:space="preserve" font-family="Avenir-Book" font-size="28.0" fill="#FFE500" transform="matrix(1.00, 0.00, -0.00, -1.00, 343.0, 237.0)">e</text><text xml:space="preserve" font-family="Avenir-Book" font-size="28.0" fill="#FFE500" transform="matrix(1.00, 0.00, -0.00, -1.00, 358.6, 237.0)">a</text><text xml:space="preserve" font-family="Avenir-Book" font-size="28.0" fill="#FFE500" transform="matrix(1.00, 0.00, -0.00, -1.00, 373.1, 237.0)">u</text><text xml:space="preserve" font-family="Avenir-Book" font-size="28.0" fill="#FFE500" transform="matrix(1.00, 0.00, -0.00, -1.00, 388.7, 237.0)">t</text><text xml:space="preserve" font-family="Avenir-Book" font-size="28.0" fill="#FFE500" transform="matrix(1.00, 0.00, -0.00, -1.00, 398.0, 237.0)">i</text><text xml:space="preserve" font-family="Avenir-Book" font-size="28.0" fill="#FFE500" transform="matrix(1.00, 0.00, -0.00, -1.00, 404.7, 237.0)">f</text><text xml:space="preserve" font-family="Avenir-Book" font-size="28.0" fill="#FFE500" transform="matrix(1.00, 0.00, -0.00, -1.00, 413.0, 237.0)">u</text><text xml:space="preserve" font-family="Avenir-Book" font-size="28.0" fill="#FFE500" transform="matrix(1.00, 0.00, -0.00, -1.00, 428.6, 237.0)">l</text><text xml:space="preserve" font-family="Avenir-Book" font-size="28.0" fill="#FFE500" transform="matrix(1.00, 0.00, -0.00, -1.00, 435.3, 237.0)">S</text><text xml:space="preserve" font-family="Avenir-Book" font-size="28.0" fill="#FFE500" transform="matrix(1.00, 0.00, -0.00, -1.00, 450.9, 237.0)">o</text><text xml:space="preserve" font-family="Avenir-Book" font-size="28.0" fill="#FFE500" transform="matrix(1.00, 0.00, -0.00, -1.00, 467.5, 237.0)">u</text><text xml:space="preserve" font-family="Avenir-Book" font-size="28.0" fill="#FFE500" transform="matrix(1.00, 0.00, -0.00, -1.00, 483.0, 237.0)">p</text><text xml:space="preserve" font-family="Avenir-Book" font-size="28.0" fill="#FEFFFF" transform="matrix(1.00, 0.00, -0.00, -1.00, 500.2, 237.0)"> </text><text xml:space="preserve" font-family="Avenir-Book" font-size="28.0" fill="#FEFFFF" transform="matrix(1.00, 0.00, -0.00, -1.00, 507.9, 237.0)">f</text><text xml:space="preserve" font-family="Avenir-Book" font-size="28.0" fill="#FEFFFF" transform="matrix(1.00, 0.00, -0.00, -1.00, 516.2, 237.0)">o</text><text xml:space="preserve" font-family="Avenir-Book" font-size="28.0" fill="#FEFFFF" transform="matrix(1.00, 0.00, -0.00, -1.00, 532.8, 237.0)">r</text><text xml:space="preserve" font-family="Avenir-Book" font-size="28.0" fill="#FEFFFF" transform="matrix(1.00, 0.00, -0.00, -1.00, 542.1, 237.0)"> </text><text xml:space="preserve" font-family="Avenir-Book" font-size="28.0" fill="#FEFFFF" transform="matrix(1.00, 0.00, -0.00, -1.00, 549.9, 237.0)">t</text><text xml:space="preserve" font-family="Avenir-Book" font-size="28.0" fill="#FEFFFF" transform="matrix(1.00, 0.00, -0.00, -1.00, 559.2, 237.0)">h</text><text xml:space="preserve" font-family="Avenir-Book" font-size="28.0" fill="#FEFFFF" transform="matrix(1.00, 0.00, -0.00, -1.00, 574.8, 237.0)">e</text><text xml:space="preserve" font-family="Avenir-Book" font-size="28.0" fill="#FEFFFF" transform="matrix(1.00, 0.00, -0.00, -1.00, 590.3, 237.0)"> </text><text xml:space="preserve" font-family="Avenir-Book" font-size="28.0" fill="#FEFFFF" transform="matrix(1.00, 0.00, -0.00, -1.00, 598.1, 237.0)">i</text><text xml:space="preserve" font-family="Avenir-Book" font-size="28.0" fill="#FEFFFF" transform="matrix(1.00, 0.00, -0.00, -1.00, 604.8, 237.0)">n</text><text xml:space="preserve" font-family="Avenir-Book" font-size="28.0" fill="#FEFFFF" transform="matrix(1.00, 0.00, -0.00, -1.00, 620.4, 237.0)">t</text><text xml:space="preserve" font-family="Avenir-Book" font-size="28.0" fill="#FEFFFF" transform="matrix(1.00, 0.00, -0.00, -1.00, 629.7, 237.0)">e</text><text xml:space="preserve" font-family="Avenir-Book" font-size="28.0" fill="#FEFFFF" transform="matrix(1.00, 0.00, -0.00, -1.00, 645.3, 237.0)">r</text><text xml:space="preserve" font-family="Avenir-Book" font-size="28.0" fill="#FEFFFF" transform="matrix(1.00, 0.00, -0.00, -1.00, 655.1, 237.0)">m</text><text xml:space="preserve" font-family="Avenir-Book" font-size="28.0" fill="#FEFFFF" transform="matrix(1.00, 0.00, -0.00, -1.00, 678.9, 237.0)">e</text><text xml:space="preserve" font-family="Avenir-Book" font-size="28.0" fill="#FEFFFF" transform="matrix(1.00, 0.00, -0.00, -1.00, 694.5, 237.0)">d</text><text xml:space="preserve" font-family="Avenir-Book" font-size="28.0" fill="#FEFFFF" transform="matrix(1.00, 0.00, -0.00, -1.00, 711.6, 237.0)">i</text><text xml:space="preserve" font-family="Avenir-Book" font-size="28.0" fill="#FEFFFF" transform="matrix(1.00, 0.00, -0.00, -1.00, 718.3, 237.0)">a</text><text xml:space="preserve" font-family="Avenir-Book" font-size="28.0" fill="#FEFFFF" transform="matrix(1.00, 0.00, -0.00, -1.00, 732.9, 237.0)">t</text><text xml:space="preserve" font-family="Avenir-Book" font-size="28.0" fill="#FEFFFF" transform="matrix(1.00, 0.00, -0.00, -1.00, 742.2, 237.0)">e</text><text xml:space="preserve" font-family="Avenir-Book" font-size="28.0" fill="#FEFFFF" transform="matrix(1.00, 0.00, -0.00, -1.00, 757.7, 237.0)"> </text><text xml:space="preserve" font-family="Avenir-Book" font-size="28.0" fill="#FEFFFF" transform="matrix(1.00, 0.00, -0.00, -1.00, 765.5, 237.0)">s</text><text xml:space="preserve" font-family="Avenir-Book" font-size="28.0" fill="#FEFFFF" transform="matrix(1.00, 0.00, -0.00, -1.00, 777.4, 237.0)">e</text><text xml:space="preserve" font-family="Avenir-Book" font-size="28.0" fill="#FEFFFF" transform="matrix(1.00, 0.00, -0.00, -1.00, 793.0, 237.0)">r</text><text xml:space="preserve" font-family="Avenir-Book" font-size="28.0" fill="#FEFFFF" transform="matrix(1.00, 0.00, -0.00, -1.00, 802.3, 237.0)">v</text><text xml:space="preserve" font-family="Avenir-Book" font-size="28.0" fill="#FEFFFF" transform="matrix(1.00, 0.00, -0.00, -1.00, 815.8, 237.0)">e</text><text xml:space="preserve" font-family="Avenir-Book" font-size="28.0" fill="#FEFFFF" transform="matrix(1.00, 0.00, -0.00, -1.00, 831.4, 237.0)">r</text><text xml:space="preserve" font-family="Avenir-Book" font-size="28.0" fill="#FEFFFF" transform="matrix(1.00, 0.00, -0.00, -1.00, 840.7, 237.0)"> </text><text xml:space="preserve" font-family="Avenir-Book" font-size="21.0" fill="#FEFFFF" transform="matrix(1.00, 0.00, -0.00, -1.00, 79.0, 169.2)">•</text><text xml:space="preserve" font-family="Avenir-Book" font-size="28.0" fill="#FFD900" transform="matrix(1.00, 0.00, -0.00, -1.00, 106.0, 167.0)">A</text><text xml:space="preserve" font-family="Avenir-Book" font-size="28.0" fill="#FFD900" transform="matrix(1.00, 0.00, -0.00, -1.00, 125.2, 167.0)">n</text><text xml:space="preserve" font-family="Avenir-Book" font-size="28.0" fill="#FFD900" transform="matrix(1.00, 0.00, -0.00, -1.00, 140.8, 167.0)">g</text><text xml:space="preserve" font-family="Avenir-Book" font-size="28.0" fill="#FFD900" transform="matrix(1.00, 0.00, -0.00, -1.00, 157.9, 167.0)">u</text><text xml:space="preserve" font-family="Avenir-Book" font-size="28.0" fill="#FFD900" transform="matrix(1.00, 0.00, -0.00, -1.00, 173.5, 167.0)">l</text><text xml:space="preserve" font-family="Avenir-Book" font-size="28.0" fill="#FFD900" transform="matrix(1.00, 0.00, -0.00, -1.00, 180.2, 167.0)">a</text><text xml:space="preserve" font-family="Avenir-Book" font-size="28.0" fill="#FFD900" transform="matrix(1.00, 0.00, -0.00, -1.00, 194.7, 167.0)">r</text><text xml:space="preserve" font-family="Avenir-Book" font-size="28.0" fill="#FFD900" transform="matrix(1.00, 0.00, -0.00, -1.00, 204.0, 167.0)"> </text><text xml:space="preserve" font-family="Avenir-Book" font-size="28.0" fill="#FFD900" transform="matrix(1.00, 0.00, -0.00, -1.00, 211.8, 167.0)">J</text><text xml:space="preserve" font-family="Avenir-Book" font-size="28.0" fill="#FFD900" transform="matrix(1.00, 0.00, -0.00, -1.00, 225.3, 167.0)">S</text><text xml:space="preserve" font-family="Avenir-Book" font-size="28.0" fill="#FEFFFF" transform="matrix(1.00, 0.00, -0.00, -1.00, 240.8, 167.0)"> </text><text xml:space="preserve" font-family="Avenir-Book" font-size="28.0" fill="#FEFFFF" transform="matrix(1.00, 0.00, -0.00, -1.00, 248.6, 167.0)">a</text><text xml:space="preserve" font-family="Avenir-Book" font-size="28.0" fill="#FEFFFF" transform="matrix(1.00, 0.00, -0.00, -1.00, 263.2, 167.0)">n</text><text xml:space="preserve" font-family="Avenir-Book" font-size="28.0" fill="#FEFFFF" transform="matrix(1.00, 0.00, -0.00, -1.00, 278.7, 167.0)">d</text><text xml:space="preserve" font-family="Avenir-Book" font-size="28.0" fill="#FEFFFF" transform="matrix(1.00, 0.00, -0.00, -1.00, 295.8, 167.0)"> </text><text xml:space="preserve" font-family="Avenir-Book" font-size="28.0" fill="#FFE700" transform="matrix(1.00, 0.00, -0.00, -1.00, 303.6, 167.0)">j</text><text xml:space="preserve" font-family="Avenir-Book" font-size="28.0" fill="#FFE700" transform="matrix(1.00, 0.00, -0.00, -1.00, 310.3, 167.0)">Q</text><text xml:space="preserve" font-family="Avenir-Book" font-size="28.0" fill="#FFE700" transform="matrix(1.00, 0.00, -0.00, -1.00, 333.7, 167.0)">u</text><text xml:space="preserve" font-family="Avenir-Book" font-size="28.0" fill="#FFE700" transform="matrix(1.00, 0.00, -0.00, -1.00, 349.3, 167.0)">e</text><text xml:space="preserve" font-family="Avenir-Book" font-size="28.0" fill="#FFE700" transform="matrix(1.00, 0.00, -0.00, -1.00, 364.8, 167.0)">r</text><text xml:space="preserve" font-family="Avenir-Book" font-size="28.0" fill="#FFE700" transform="matrix(1.00, 0.00, -0.00, -1.00, 374.1, 167.0)">y</text><text xml:space="preserve" font-family="Avenir-Book" font-size="28.0" fill="#FEFFFF" transform="matrix(1.00, 0.00, -0.00, -1.00, 387.6, 167.0)"> </text><text xml:space="preserve" font-family="Avenir-Book" font-size="28.0" fill="#FEFFFF" transform="matrix(1.00, 0.00, -0.00, -1.00, 395.4, 167.0)">f</text><text xml:space="preserve" font-family="Avenir-Book" font-size="28.0" fill="#FEFFFF" transform="matrix(1.00, 0.00, -0.00, -1.00, 403.7, 167.0)">o</text><text xml:space="preserve" font-family="Avenir-Book" font-size="28.0" fill="#FEFFFF" transform="matrix(1.00, 0.00, -0.00, -1.00, 420.3, 167.0)">r</text><text xml:space="preserve" font-family="Avenir-Book" font-size="28.0" fill="#FEFFFF" transform="matrix(1.00, 0.00, -0.00, -1.00, 429.6, 167.0)"> </text><text xml:space="preserve" font-family="Avenir-Book" font-size="28.0" fill="#FEFFFF" transform="matrix(1.00, 0.00, -0.00, -1.00, 437.4, 167.0)">t</text><text xml:space="preserve" font-family="Avenir-Book" font-size="28.0" fill="#FEFFFF" transform="matrix(1.00, 0.00, -0.00, -1.00, 446.7, 167.0)">h</text><text xml:space="preserve" font-family="Avenir-Book" font-size="28.0" fill="#FEFFFF" transform="matrix(1.00, 0.00, -0.00, -1.00, 462.2, 167.0)">e</text><text xml:space="preserve" font-family="Avenir-Book" font-size="28.0" fill="#FEFFFF" transform="matrix(1.00, 0.00, -0.00, -1.00, 477.8, 167.0)"> </text><text xml:space="preserve" font-family="Avenir-Book" font-size="28.0" fill="#FEFFFF" transform="matrix(1.00, 0.00, -0.00, -1.00, 485.6, 167.0)">c</text><text xml:space="preserve" font-family="Avenir-Book" font-size="28.0" fill="#FEFFFF" transform="matrix(1.00, 0.00, -0.00, -1.00, 499.1, 167.0)">u</text><text xml:space="preserve" font-family="Avenir-Book" font-size="28.0" fill="#FEFFFF" transform="matrix(1.00, 0.00, -0.00, -1.00, 514.7, 167.0)">s</text><text xml:space="preserve" font-family="Avenir-Book" font-size="28.0" fill="#FEFFFF" transform="matrix(1.00, 0.00, -0.00, -1.00, 526.6, 167.0)">t</text><text xml:space="preserve" font-family="Avenir-Book" font-size="28.0" fill="#FEFFFF" transform="matrix(1.00, 0.00, -0.00, -1.00, 535.9, 167.0)">o</text><text xml:space="preserve" font-family="Avenir-Book" font-size="28.0" fill="#FEFFFF" transform="matrix(1.00, 0.00, -0.00, -1.00, 552.5, 167.0)">m</text><text xml:space="preserve" font-family="Avenir-Book" font-size="28.0" fill="#FEFFFF" transform="matrix(1.00, 0.00, -0.00, -1.00, 576.3, 167.0)"> </text><text xml:space="preserve" font-family="Avenir-Book" font-size="28.0" fill="#FEFFFF" transform="matrix(1.00, 0.00, -0.00, -1.00, 584.1, 167.0)">m</text><text xml:space="preserve" font-family="Avenir-Book" font-size="28.0" fill="#FEFFFF" transform="matrix(1.00, 0.00, -0.00, -1.00, 608.0, 167.0)">a</text><text xml:space="preserve" font-family="Avenir-Book" font-size="28.0" fill="#FEFFFF" transform="matrix(1.00, 0.00, -0.00, -1.00, 622.5, 167.0)">p</text><text xml:space="preserve" font-family="Avenir-Book" font-size="28.0" fill="#FEFFFF" transform="matrix(1.00, 0.00, -0.00, -1.00, 639.6, 167.0)"> </text><text xml:space="preserve" font-family="Avenir-Book" font-size="28.0" fill="#FEFFFF" transform="matrix(1.00, 0.00, -0.00, -1.00, 647.4, 167.0)">l</text><text xml:space="preserve" font-family="Avenir-Book" font-size="28.0" fill="#FEFFFF" transform="matrix(1.00, 0.00, -0.00, -1.00, 654.1, 167.0)">a</text><text xml:space="preserve" font-family="Avenir-Book" font-size="28.0" fill="#FEFFFF" transform="matrix(1.00, 0.00, -0.00, -1.00, 668.7, 167.0)">y</text><text xml:space="preserve" font-family="Avenir-Book" font-size="28.0" fill="#FEFFFF" transform="matrix(1.00, 0.00, -0.00, -1.00, 682.2, 167.0)">o</text><text xml:space="preserve" font-family="Avenir-Book" font-size="28.0" fill="#FEFFFF" transform="matrix(1.00, 0.00, -0.00, -1.00, 698.8, 167.0)">u</text><text xml:space="preserve" font-family="Avenir-Book" font-size="28.0" fill="#FEFFFF" transform="matrix(1.00, 0.00, -0.00, -1.00, 714.3, 167.0)">t</text><text xml:space="preserve" font-family="Helvetica-Light" font-size="18.0" fill="#FEFFFF" transform="matrix(1.00, 0.00, -0.00, -1.00, 506.0, 17.0)">6</text></g></svg>