<?xml version="1.0" encoding="UTF-8" standalone="no"?><svg xmlns="http://www.w3.org/2000/svg" xmlns:xlink="http://www.w3.org/1999/xlink" clip-rule="evenodd" stroke-miterlimit="4.00" viewBox="0 0 1024 768"><desc>SVG generated by Keynote</desc><defs></defs><g transform="matrix(1.00, 0.00, -0.00, -1.00, 0.0, 768.0)"><path d="M 0.0 768.0 L 1024.0 768.0 L 1024.0 0.0 L 0.0 0.0 Z M 0.0 768.0 " fill="#000000"></path><text xml:space="preserve" font-family="Helvetica-Light" font-size="60.0" fill="#E57D1F" transform="matrix(1.00, 0.00, -0.00, -1.00, 322.0, 641.0)">P</text><text xml:space="preserve" font-family="Helvetica-Light" font-size="60.0" fill="#E57D1F" transform="matrix(1.00, 0.00, -0.00, -1.00, 358.7, 641.0)">r</text><text xml:space="preserve" font-family="Helvetica-Light" font-size="60.0" fill="#E57D1F" transform="matrix(1.00, 0.00, -0.00, -1.00, 377.6, 641.0)">o</text><text xml:space="preserve" font-family="Helvetica-Light" font-size="60.0" fill="#E57D1F" transform="matrix(1.00, 0.00, -0.00, -1.00, 410.9, 641.0)">j</text><text xml:space="preserve" font-family="Helvetica-Light" font-size="60.0" fill="#E57D1F" transform="matrix(1.00, 0.00, -0.00, -1.00, 424.2, 641.0)">e</text><text xml:space="preserve" font-family="Helvetica-Light" font-size="60.0" fill="#E57D1F" transform="matrix(1.00, 0.00, -0.00, -1.00, 457.6, 641.0)">c</text><text xml:space="preserve" font-family="Helvetica-Light" font-size="60.0" fill="#E57D1F" transform="matrix(1.00, 0.00, -0.00, -1.00, 491.0, 641.0)">t</text><text xml:space="preserve" font-family="Helvetica-Light" font-size="60.0" fill="#E57D1F" transform="matrix(1.00, 0.00, -0.00, -1.00, 507.6, 641.0)"> </text><text xml:space="preserve" font-family="Helvetica-Light" font-size="60.0" fill="#E57D1F" transform="matrix(1.00, 0.00, -0.00, -1.00, 524.3, 641.0)">m</text><text xml:space="preserve" font-family="Helvetica-Light" font-size="60.0" fill="#E57D1F" transform="matrix(1.00, 0.00, -0.00, -1.00, 574.3, 641.0)">o</text><text xml:space="preserve" font-family="Helvetica-Light" font-size="60.0" fill="#E57D1F" transform="matrix(1.00, 0.00, -0.00, -1.00, 607.7, 641.0)">t</text><text xml:space="preserve" font-family="Helvetica-Light" font-size="60.0" fill="#E57D1F" transform="matrix(1.00, 0.00, -0.00, -1.00, 624.3, 641.0)">i</text><text xml:space="preserve" font-family="Helvetica-Light" font-size="60.0" fill="#E57D1F" transform="matrix(1.00, 0.00, -0.00, -1.00, 637.7, 641.0)">v</text><text xml:space="preserve" font-family="Helvetica-Light" font-size="60.0" fill="#E57D1F" transform="matrix(1.00, 0.00, -0.00, -1.00, 667.7, 641.0)">e</text><text xml:space="preserve" font-family="Helvetica-Light" font-size="60.0" fill="#E57D1F" transform="matrix(1.00, 0.00, -0.00, -1.00, 701.0, 641.0)"> </text><text xml:space="preserve" font-family="Avenir-Book" font-size="21.0" fill="#FEFFFF" transform="matrix(1.00, 0.00, -0.00, -1.00, 79.0, 449.2)">•</text><text xml:space="preserve" font-family="Avenir-Book" font-size="28.0" fill="#FEFFFF" transform="matrix(1.00, 0.00, -0.00, -1.00, 106.0, 447.0)">Q</text><text xml:space="preserve" font-family="Avenir-Book" font-size="28.0" fill="#FEFFFF" transform="matrix(1.00, 0.00, -0.00, -1.00, 129.4, 447.0)">u</text><text xml:space="preserve" font-family="Avenir-Book" font-size="28.0" fill="#FEFFFF" transform="matrix(1.00, 0.00, -0.00, -1.00, 144.9, 447.0)">e</text><text xml:space="preserve" font-family="Avenir-Book" font-size="28.0" fill="#FEFFFF" transform="matrix(1.00, 0.00, -0.00, -1.00, 160.5, 447.0)">u</text><text xml:space="preserve" font-family="Avenir-Book" font-size="28.0" fill="#FEFFFF" transform="matrix(1.00, 0.00, -0.00, -1.00, 176.1, 447.0)">e</text><text xml:space="preserve" font-family="Avenir-Book" font-size="28.0" fill="#FEFFFF" transform="matrix(1.00, 0.00, -0.00, -1.00, 191.6, 447.0)">s</text><text xml:space="preserve" font-family="Avenir-Book" font-size="28.0" fill="#FEFFFF" transform="matrix(1.00, 0.00, -0.00, -1.00, 203.6, 447.0)"> </text><text xml:space="preserve" font-family="Avenir-Book" font-size="28.0" fill="#FEFFFF" transform="matrix(1.00, 0.00, -0.00, -1.00, 211.3, 447.0)">f</text><text xml:space="preserve" font-family="Avenir-Book" font-size="28.0" fill="#FEFFFF" transform="matrix(1.00, 0.00, -0.00, -1.00, 219.6, 447.0)">o</text><text xml:space="preserve" font-family="Avenir-Book" font-size="28.0" fill="#FEFFFF" transform="matrix(1.00, 0.00, -0.00, -1.00, 236.2, 447.0)">r</text><text xml:space="preserve" font-family="Avenir-Book" font-size="28.0" fill="#FEFFFF" transform="matrix(1.00, 0.00, -0.00, -1.00, 245.5, 447.0)"> </text><text xml:space="preserve" font-family="Avenir-Book" font-size="28.0" fill="#FEFFFF" transform="matrix(1.00, 0.00, -0.00, -1.00, 253.3, 447.0)">b</text><text xml:space="preserve" font-family="Avenir-Book" font-size="28.0" fill="#FEFFFF" transform="matrix(1.00, 0.00, -0.00, -1.00, 270.4, 447.0)">o</text><text xml:space="preserve" font-family="Avenir-Book" font-size="28.0" fill="#FEFFFF" transform="matrix(1.00, 0.00, -0.00, -1.00, 287.0, 447.0)">o</text><text xml:space="preserve" font-family="Avenir-Book" font-size="28.0" fill="#FEFFFF" transform="matrix(1.00, 0.00, -0.00, -1.00, 303.6, 447.0)">k</text><text xml:space="preserve" font-family="Avenir-Book" font-size="28.0" fill="#FEFFFF" transform="matrix(1.00, 0.00, -0.00, -1.00, 317.1, 447.0)"> </text><text xml:space="preserve" font-family="Avenir-Book" font-size="28.0" fill="#FEFFFF" transform="matrix(1.00, 0.00, -0.00, -1.00, 324.9, 447.0)">s</text><text xml:space="preserve" font-family="Avenir-Book" font-size="28.0" fill="#FEFFFF" transform="matrix(1.00, 0.00, -0.00, -1.00, 336.8, 447.0)">e</text><text xml:space="preserve" font-family="Avenir-Book" font-size="28.0" fill="#FEFFFF" transform="matrix(1.00, 0.00, -0.00, -1.00, 352.4, 447.0)">a</text><text xml:space="preserve" font-family="Avenir-Book" font-size="28.0" fill="#FEFFFF" transform="matrix(1.00, 0.00, -0.00, -1.00, 366.9, 447.0)">r</text><text xml:space="preserve" font-family="Avenir-Book" font-size="28.0" fill="#FEFFFF" transform="matrix(1.00, 0.00, -0.00, -1.00, 375.7, 447.0)">c</text><text xml:space="preserve" font-family="Avenir-Book" font-size="28.0" fill="#FEFFFF" transform="matrix(1.00, 0.00, -0.00, -1.00, 389.2, 447.0)">h</text><text xml:space="preserve" font-family="Avenir-Book" font-size="28.0" fill="#FEFFFF" transform="matrix(1.00, 0.00, -0.00, -1.00, 404.8, 447.0)"> </text><text xml:space="preserve" font-family="Avenir-Book" font-size="28.0" fill="#FEFFFF" transform="matrix(1.00, 0.00, -0.00, -1.00, 412.6, 447.0)">i</text><text xml:space="preserve" font-family="Avenir-Book" font-size="28.0" fill="#FEFFFF" transform="matrix(1.00, 0.00, -0.00, -1.00, 419.3, 447.0)">n</text><text xml:space="preserve" font-family="Avenir-Book" font-size="28.0" fill="#FEFFFF" transform="matrix(1.00, 0.00, -0.00, -1.00, 434.9, 447.0)"> </text><text xml:space="preserve" font-family="Avenir-Book" font-size="28.0" fill="#FEFFFF" transform="matrix(1.00, 0.00, -0.00, -1.00, 442.6, 447.0)">t</text><text xml:space="preserve" font-family="Avenir-Book" font-size="28.0" fill="#FEFFFF" transform="matrix(1.00, 0.00, -0.00, -1.00, 451.9, 447.0)">h</text><text xml:space="preserve" font-family="Avenir-Book" font-size="28.0" fill="#FEFFFF" transform="matrix(1.00, 0.00, -0.00, -1.00, 467.5, 447.0)">e</text><text xml:space="preserve" font-family="Avenir-Book" font-size="28.0" fill="#FEFFFF" transform="matrix(1.00, 0.00, -0.00, -1.00, 483.1, 447.0)"> </text><text xml:space="preserve" font-family="Avenir-Book" font-size="28.0" fill="#FEFFFF" transform="matrix(1.00, 0.00, -0.00, -1.00, 490.9, 447.0)">s</text><text xml:space="preserve" font-family="Avenir-Book" font-size="28.0" fill="#FEFFFF" transform="matrix(1.00, 0.00, -0.00, -1.00, 502.8, 447.0)">t</text><text xml:space="preserve" font-family="Avenir-Book" font-size="28.0" fill="#FEFFFF" transform="matrix(1.00, 0.00, -0.00, -1.00, 512.1, 447.0)">a</text><text xml:space="preserve" font-family="Avenir-Book" font-size="28.0" fill="#FEFFFF" transform="matrix(1.00, 0.00, -0.00, -1.00, 526.6, 447.0)">c</text><text xml:space="preserve" font-family="Avenir-Book" font-size="28.0" fill="#FEFFFF" transform="matrix(1.00, 0.00, -0.00, -1.00, 540.1, 447.0)">k</text><text xml:space="preserve" font-family="Avenir-Book" font-size="28.0" fill="#FEFFFF" transform="matrix(1.00, 0.00, -0.00, -1.00, 553.6, 447.0)"> </text><text xml:space="preserve" font-family="Avenir-Book" font-size="28.0" fill="#FEFFFF" transform="matrix(1.00, 0.00, -0.00, -1.00, 561.4, 447.0)">r</text><text xml:space="preserve" font-family="Avenir-Book" font-size="28.0" fill="#FEFFFF" transform="matrix(1.00, 0.00, -0.00, -1.00, 570.2, 447.0)">o</text><text xml:space="preserve" font-family="Avenir-Book" font-size="28.0" fill="#FEFFFF" transform="matrix(1.00, 0.00, -0.00, -1.00, 586.8, 447.0)">o</text><text xml:space="preserve" font-family="Avenir-Book" font-size="28.0" fill="#FEFFFF" transform="matrix(1.00, 0.00, -0.00, -1.00, 603.4, 447.0)">m</text><text xml:space="preserve" font-family="Avenir-Book" font-size="28.0" fill="#FEFFFF" transform="matrix(1.00, 0.00, -0.00, -1.00, 627.2, 447.0)"> </text><text xml:space="preserve" font-family="Avenir-Book" font-size="28.0" fill="#FEFFFF" transform="matrix(1.00, 0.00, -0.00, -1.00, 635.0, 447.0)">s</text><text xml:space="preserve" font-family="Avenir-Book" font-size="28.0" fill="#FEFFFF" transform="matrix(1.00, 0.00, -0.00, -1.00, 647.0, 447.0)">y</text><text xml:space="preserve" font-family="Avenir-Book" font-size="28.0" fill="#FEFFFF" transform="matrix(1.00, 0.00, -0.00, -1.00, 660.5, 447.0)">s</text><text xml:space="preserve" font-family="Avenir-Book" font-size="28.0" fill="#FEFFFF" transform="matrix(1.00, 0.00, -0.00, -1.00, 672.4, 447.0)">t</text><text xml:space="preserve" font-family="Avenir-Book" font-size="28.0" fill="#FEFFFF" transform="matrix(1.00, 0.00, -0.00, -1.00, 681.7, 447.0)">e</text><text xml:space="preserve" font-family="Avenir-Book" font-size="28.0" fill="#FEFFFF" transform="matrix(1.00, 0.00, -0.00, -1.00, 697.2, 447.0)">m</text><text xml:space="preserve" font-family="Avenir-Book" font-size="28.0" fill="#FEFFFF" transform="matrix(1.00, 0.00, -0.00, -1.00, 721.1, 447.0)">s</text><text xml:space="preserve" font-family="Avenir-Book" font-size="28.0" fill="#FEFFFF" transform="matrix(1.00, 0.00, -0.00, -1.00, 733.0, 447.0)"> </text><text xml:space="preserve" font-family="Avenir-Book" font-size="21.0" fill="#FEFFFF" transform="matrix(1.00, 0.00, -0.00, -1.00, 79.0, 379.2)">•</text><text xml:space="preserve" font-family="Avenir-Book" font-size="28.0" fill="#FEFFFF" transform="matrix(1.00, 0.00, -0.00, -1.00, 106.0, 377.0)">E</text><text xml:space="preserve" font-family="Avenir-Book" font-size="28.0" fill="#FEFFFF" transform="matrix(1.00, 0.00, -0.00, -1.00, 122.6, 377.0)">a</text><text xml:space="preserve" font-family="Avenir-Book" font-size="28.0" fill="#FEFFFF" transform="matrix(1.00, 0.00, -0.00, -1.00, 137.1, 377.0)">c</text><text xml:space="preserve" font-family="Avenir-Book" font-size="28.0" fill="#FEFFFF" transform="matrix(1.00, 0.00, -0.00, -1.00, 150.6, 377.0)">h</text><text xml:space="preserve" font-family="Avenir-Book" font-size="28.0" fill="#FEFFFF" transform="matrix(1.00, 0.00, -0.00, -1.00, 166.2, 377.0)"> </text><text xml:space="preserve" font-family="Avenir-Book" font-size="28.0" fill="#FEFFFF" transform="matrix(1.00, 0.00, -0.00, -1.00, 174.0, 377.0)">b</text><text xml:space="preserve" font-family="Avenir-Book" font-size="28.0" fill="#FEFFFF" transform="matrix(1.00, 0.00, -0.00, -1.00, 191.1, 377.0)">o</text><text xml:space="preserve" font-family="Avenir-Book" font-size="28.0" fill="#FEFFFF" transform="matrix(1.00, 0.00, -0.00, -1.00, 207.7, 377.0)">o</text><text xml:space="preserve" font-family="Avenir-Book" font-size="28.0" fill="#FEFFFF" transform="matrix(1.00, 0.00, -0.00, -1.00, 224.3, 377.0)">k</text><text xml:space="preserve" font-family="Avenir-Book" font-size="28.0" fill="#FEFFFF" transform="matrix(1.00, 0.00, -0.00, -1.00, 237.8, 377.0)"> </text><text xml:space="preserve" font-family="Avenir-Book" font-size="28.0" fill="#FEFFFF" transform="matrix(1.00, 0.00, -0.00, -1.00, 245.6, 377.0)">h</text><text xml:space="preserve" font-family="Avenir-Book" font-size="28.0" fill="#FEFFFF" transform="matrix(1.00, 0.00, -0.00, -1.00, 261.1, 377.0)">a</text><text xml:space="preserve" font-family="Avenir-Book" font-size="28.0" fill="#FEFFFF" transform="matrix(1.00, 0.00, -0.00, -1.00, 275.7, 377.0)">s</text><text xml:space="preserve" font-family="Avenir-Book" font-size="28.0" fill="#FEFFFF" transform="matrix(1.00, 0.00, -0.00, -1.00, 287.6, 377.0)"> </text><text xml:space="preserve" font-family="Avenir-Book" font-size="28.0" fill="#FEFFFF" transform="matrix(1.00, 0.00, -0.00, -1.00, 295.4, 377.0)">a</text><text xml:space="preserve" font-family="Avenir-Book" font-size="28.0" fill="#FEFFFF" transform="matrix(1.00, 0.00, -0.00, -1.00, 309.9, 377.0)"> </text><text xml:space="preserve" font-family="Avenir-Book" font-size="28.0" fill="#FEFFFF" transform="matrix(1.00, 0.00, -0.00, -1.00, 317.7, 377.0)">d</text><text xml:space="preserve" font-family="Avenir-Book" font-size="28.0" fill="#FEFFFF" transform="matrix(1.00, 0.00, -0.00, -1.00, 334.8, 377.0)">i</text><text xml:space="preserve" font-family="Avenir-Book" font-size="28.0" fill="#FEFFFF" transform="matrix(1.00, 0.00, -0.00, -1.00, 341.5, 377.0)">f</text><text xml:space="preserve" font-family="Avenir-Book" font-size="28.0" fill="#FEFFFF" transform="matrix(1.00, 0.00, -0.00, -1.00, 349.3, 377.0)">f</text><text xml:space="preserve" font-family="Avenir-Book" font-size="28.0" fill="#FEFFFF" transform="matrix(1.00, 0.00, -0.00, -1.00, 357.6, 377.0)">e</text><text xml:space="preserve" font-family="Avenir-Book" font-size="28.0" fill="#FEFFFF" transform="matrix(1.00, 0.00, -0.00, -1.00, 373.2, 377.0)">r</text><text xml:space="preserve" font-family="Avenir-Book" font-size="28.0" fill="#FEFFFF" transform="matrix(1.00, 0.00, -0.00, -1.00, 382.0, 377.0)">e</text><text xml:space="preserve" font-family="Avenir-Book" font-size="28.0" fill="#FEFFFF" transform="matrix(1.00, 0.00, -0.00, -1.00, 397.5, 377.0)">n</text><text xml:space="preserve" font-family="Avenir-Book" font-size="28.0" fill="#FEFFFF" transform="matrix(1.00, 0.00, -0.00, -1.00, 413.1, 377.0)">t</text><text xml:space="preserve" font-family="Avenir-Book" font-size="28.0" fill="#FEFFFF" transform="matrix(1.00, 0.00, -0.00, -1.00, 422.4, 377.0)"> </text><text xml:space="preserve" font-family="Avenir-Book" font-size="28.0" fill="#FEFFFF" transform="matrix(1.00, 0.00, -0.00, -1.00, 430.2, 377.0)">r</text><text xml:space="preserve" font-family="Avenir-Book" font-size="28.0" fill="#FEFFFF" transform="matrix(1.00, 0.00, -0.00, -1.00, 439.5, 377.0)">a</text><text xml:space="preserve" font-family="Avenir-Book" font-size="28.0" fill="#FEFFFF" transform="matrix(1.00, 0.00, -0.00, -1.00, 454.0, 377.0)">c</text><text xml:space="preserve" font-family="Avenir-Book" font-size="28.0" fill="#FEFFFF" transform="matrix(1.00, 0.00, -0.00, -1.00, 467.5, 377.0)">k</text><text xml:space="preserve" font-family="Avenir-Book" font-size="28.0" fill="#FEFFFF" transform="matrix(1.00, 0.00, -0.00, -1.00, 481.0, 377.0)"> </text><text xml:space="preserve" font-family="Avenir-Book" font-size="28.0" fill="#FEFFFF" transform="matrix(1.00, 0.00, -0.00, -1.00, 488.8, 377.0)">n</text><text xml:space="preserve" font-family="Avenir-Book" font-size="28.0" fill="#FEFFFF" transform="matrix(1.00, 0.00, -0.00, -1.00, 504.4, 377.0)">u</text><text xml:space="preserve" font-family="Avenir-Book" font-size="28.0" fill="#FEFFFF" transform="matrix(1.00, 0.00, -0.00, -1.00, 519.9, 377.0)">m</text><text xml:space="preserve" font-family="Avenir-Book" font-size="28.0" fill="#FEFFFF" transform="matrix(1.00, 0.00, -0.00, -1.00, 543.8, 377.0)">b</text><text xml:space="preserve" font-family="Avenir-Book" font-size="28.0" fill="#FEFFFF" transform="matrix(1.00, 0.00, -0.00, -1.00, 560.9, 377.0)">e</text><text xml:space="preserve" font-family="Avenir-Book" font-size="28.0" fill="#FEFFFF" transform="matrix(1.00, 0.00, -0.00, -1.00, 576.5, 377.0)">r</text><text xml:space="preserve" font-family="Avenir-Book" font-size="28.0" fill="#FEFFFF" transform="matrix(1.00, 0.00, -0.00, -1.00, 585.8, 377.0)"> </text><text xml:space="preserve" font-family="Avenir-Book" font-size="21.0" fill="#FEFFFF" transform="matrix(1.00, 0.00, -0.00, -1.00, 79.0, 309.2)">•</text><text xml:space="preserve" font-family="Avenir-Book" font-size="28.0" fill="#FEFFFF" transform="matrix(1.00, 0.00, -0.00, -1.00, 106.0, 307.0)">D</text><text xml:space="preserve" font-family="Avenir-Book" font-size="28.0" fill="#FEFFFF" transform="matrix(1.00, 0.00, -0.00, -1.00, 126.7, 307.0)">i</text><text xml:space="preserve" font-family="Avenir-Book" font-size="28.0" fill="#FEFFFF" transform="matrix(1.00, 0.00, -0.00, -1.00, 133.5, 307.0)">f</text><text xml:space="preserve" font-family="Avenir-Book" font-size="28.0" fill="#FEFFFF" transform="matrix(1.00, 0.00, -0.00, -1.00, 141.3, 307.0)">f</text><text xml:space="preserve" font-family="Avenir-Book" font-size="28.0" fill="#FEFFFF" transform="matrix(1.00, 0.00, -0.00, -1.00, 149.5, 307.0)">i</text><text xml:space="preserve" font-family="Avenir-Book" font-size="28.0" fill="#FEFFFF" transform="matrix(1.00, 0.00, -0.00, -1.00, 156.3, 307.0)">c</text><text xml:space="preserve" font-family="Avenir-Book" font-size="28.0" fill="#FEFFFF" transform="matrix(1.00, 0.00, -0.00, -1.00, 169.8, 307.0)">u</text><text xml:space="preserve" font-family="Avenir-Book" font-size="28.0" fill="#FEFFFF" transform="matrix(1.00, 0.00, -0.00, -1.00, 185.3, 307.0)">l</text><text xml:space="preserve" font-family="Avenir-Book" font-size="28.0" fill="#FEFFFF" transform="matrix(1.00, 0.00, -0.00, -1.00, 192.0, 307.0)">t</text><text xml:space="preserve" font-family="Avenir-Book" font-size="28.0" fill="#FEFFFF" transform="matrix(1.00, 0.00, -0.00, -1.00, 201.3, 307.0)">y</text><text xml:space="preserve" font-family="Avenir-Book" font-size="28.0" fill="#FEFFFF" transform="matrix(1.00, 0.00, -0.00, -1.00, 214.8, 307.0)"> </text><text xml:space="preserve" font-family="Avenir-Book" font-size="28.0" fill="#FEFFFF" transform="matrix(1.00, 0.00, -0.00, -1.00, 222.6, 307.0)">i</text><text xml:space="preserve" font-family="Avenir-Book" font-size="28.0" fill="#FEFFFF" transform="matrix(1.00, 0.00, -0.00, -1.00, 229.3, 307.0)">n</text><text xml:space="preserve" font-family="Avenir-Book" font-size="28.0" fill="#FEFFFF" transform="matrix(1.00, 0.00, -0.00, -1.00, 244.9, 307.0)"> </text><text xml:space="preserve" font-family="Avenir-Book" font-size="28.0" fill="#FEFFFF" transform="matrix(1.00, 0.00, -0.00, -1.00, 252.7, 307.0)">f</text><text xml:space="preserve" font-family="Avenir-Book" font-size="28.0" fill="#FEFFFF" transform="matrix(1.00, 0.00, -0.00, -1.00, 261.0, 307.0)">i</text><text xml:space="preserve" font-family="Avenir-Book" font-size="28.0" fill="#FEFFFF" transform="matrix(1.00, 0.00, -0.00, -1.00, 267.7, 307.0)">n</text><text xml:space="preserve" font-family="Avenir-Book" font-size="28.0" fill="#FEFFFF" transform="matrix(1.00, 0.00, -0.00, -1.00, 283.3, 307.0)">d</text><text xml:space="preserve" font-family="Avenir-Book" font-size="28.0" fill="#FEFFFF" transform="matrix(1.00, 0.00, -0.00, -1.00, 300.4, 307.0)">i</text><text xml:space="preserve" font-family="Avenir-Book" font-size="28.0" fill="#FEFFFF" transform="matrix(1.00, 0.00, -0.00, -1.00, 307.1, 307.0)">n</text><text xml:space="preserve" font-family="Avenir-Book" font-size="28.0" fill="#FEFFFF" transform="matrix(1.00, 0.00, -0.00, -1.00, 322.7, 307.0)">g</text><text xml:space="preserve" font-family="Avenir-Book" font-size="28.0" fill="#FEFFFF" transform="matrix(1.00, 0.00, -0.00, -1.00, 339.8, 307.0)"> </text><text xml:space="preserve" font-family="Avenir-Book" font-size="28.0" fill="#FEFFFF" transform="matrix(1.00, 0.00, -0.00, -1.00, 347.6, 307.0)">t</text><text xml:space="preserve" font-family="Avenir-Book" font-size="28.0" fill="#FEFFFF" transform="matrix(1.00, 0.00, -0.00, -1.00, 356.9, 307.0)">h</text><text xml:space="preserve" font-family="Avenir-Book" font-size="28.0" fill="#FEFFFF" transform="matrix(1.00, 0.00, -0.00, -1.00, 372.4, 307.0)">e</text><text xml:space="preserve" font-family="Avenir-Book" font-size="28.0" fill="#FEFFFF" transform="matrix(1.00, 0.00, -0.00, -1.00, 388.0, 307.0)"> </text><text xml:space="preserve" font-family="Avenir-Book" font-size="28.0" fill="#FEFFFF" transform="matrix(1.00, 0.00, -0.00, -1.00, 395.8, 307.0)">c</text><text xml:space="preserve" font-family="Avenir-Book" font-size="28.0" fill="#FEFFFF" transform="matrix(1.00, 0.00, -0.00, -1.00, 409.3, 307.0)">o</text><text xml:space="preserve" font-family="Avenir-Book" font-size="28.0" fill="#FEFFFF" transform="matrix(1.00, 0.00, -0.00, -1.00, 425.9, 307.0)">r</text><text xml:space="preserve" font-family="Avenir-Book" font-size="28.0" fill="#FEFFFF" transform="matrix(1.00, 0.00, -0.00, -1.00, 435.2, 307.0)">r</text><text xml:space="preserve" font-family="Avenir-Book" font-size="28.0" fill="#FEFFFF" transform="matrix(1.00, 0.00, -0.00, -1.00, 444.0, 307.0)">e</text><text xml:space="preserve" font-family="Avenir-Book" font-size="28.0" fill="#FEFFFF" transform="matrix(1.00, 0.00, -0.00, -1.00, 459.5, 307.0)">c</text><text xml:space="preserve" font-family="Avenir-Book" font-size="28.0" fill="#FEFFFF" transform="matrix(1.00, 0.00, -0.00, -1.00, 473.0, 307.0)">t</text><text xml:space="preserve" font-family="Avenir-Book" font-size="28.0" fill="#FEFFFF" transform="matrix(1.00, 0.00, -0.00, -1.00, 482.3, 307.0)"> </text><text xml:space="preserve" font-family="Avenir-Book" font-size="28.0" fill="#FEFFFF" transform="matrix(1.00, 0.00, -0.00, -1.00, 490.1, 307.0)">r</text><text xml:space="preserve" font-family="Avenir-Book" font-size="28.0" fill="#FEFFFF" transform="matrix(1.00, 0.00, -0.00, -1.00, 499.4, 307.0)">a</text><text xml:space="preserve" font-family="Avenir-Book" font-size="28.0" fill="#FEFFFF" transform="matrix(1.00, 0.00, -0.00, -1.00, 513.9, 307.0)">c</text><text xml:space="preserve" font-family="Avenir-Book" font-size="28.0" fill="#FEFFFF" transform="matrix(1.00, 0.00, -0.00, -1.00, 527.4, 307.0)">k</text><text xml:space="preserve" font-family="Avenir-Book" font-size="28.0" fill="#FEFFFF" transform="matrix(1.00, 0.00, -0.00, -1.00, 540.9, 307.0)"> </text><text xml:space="preserve" font-family="Avenir-Book" font-size="21.0" fill="#FEFFFF" transform="matrix(1.00, 0.00, -0.00, -1.00, 79.0, 239.2)">•</text><text xml:space="preserve" font-family="Avenir-Book" font-size="28.0" fill="#E9D944" transform="matrix(1.00, 0.00, -0.00, -1.00, 106.0, 237.0)">S</text><text xml:space="preserve" font-family="Avenir-Book" font-size="28.0" fill="#E9D944" transform="matrix(1.00, 0.00, -0.00, -1.00, 121.6, 237.0)">o</text><text xml:space="preserve" font-family="Avenir-Book" font-size="28.0" fill="#E9D944" transform="matrix(1.00, 0.00, -0.00, -1.00, 138.2, 237.0)">l</text><text xml:space="preserve" font-family="Avenir-Book" font-size="28.0" fill="#E9D944" transform="matrix(1.00, 0.00, -0.00, -1.00, 144.9, 237.0)">u</text><text xml:space="preserve" font-family="Avenir-Book" font-size="28.0" fill="#E9D944" transform="matrix(1.00, 0.00, -0.00, -1.00, 160.5, 237.0)">t</text><text xml:space="preserve" font-family="Avenir-Book" font-size="28.0" fill="#E9D944" transform="matrix(1.00, 0.00, -0.00, -1.00, 169.8, 237.0)">i</text><text xml:space="preserve" font-family="Avenir-Book" font-size="28.0" fill="#E9D944" transform="matrix(1.00, 0.00, -0.00, -1.00, 176.5, 237.0)">o</text><text xml:space="preserve" font-family="Avenir-Book" font-size="28.0" fill="#E9D944" transform="matrix(1.00, 0.00, -0.00, -1.00, 193.1, 237.0)">n</text><text xml:space="preserve" font-family="Avenir-Book" font-size="28.0" fill="#FEFFFF" transform="matrix(1.00, 0.00, -0.00, -1.00, 208.6, 237.0)">:</text><text xml:space="preserve" font-family="Avenir-Book" font-size="28.0" fill="#FEFFFF" transform="matrix(1.00, 0.00, -0.00, -1.00, 216.4, 237.0)"> </text><text xml:space="preserve" font-family="Avenir-Book" font-size="28.0" fill="#FEFFFF" transform="matrix(1.00, 0.00, -0.00, -1.00, 224.2, 237.0)">A</text><text xml:space="preserve" font-family="Avenir-Book" font-size="28.0" fill="#FEFFFF" transform="matrix(1.00, 0.00, -0.00, -1.00, 243.4, 237.0)"> </text><text xml:space="preserve" font-family="Avenir-Book" font-size="28.0" fill="#FEFFFF" transform="matrix(1.00, 0.00, -0.00, -1.00, 251.2, 237.0)">m</text><text xml:space="preserve" font-family="Avenir-Book" font-size="28.0" fill="#FEFFFF" transform="matrix(1.00, 0.00, -0.00, -1.00, 275.1, 237.0)">o</text><text xml:space="preserve" font-family="Avenir-Book" font-size="28.0" fill="#FEFFFF" transform="matrix(1.00, 0.00, -0.00, -1.00, 291.7, 237.0)">b</text><text xml:space="preserve" font-family="Avenir-Book" font-size="28.0" fill="#FEFFFF" transform="matrix(1.00, 0.00, -0.00, -1.00, 308.8, 237.0)">i</text><text xml:space="preserve" font-family="Avenir-Book" font-size="28.0" fill="#FEFFFF" transform="matrix(1.00, 0.00, -0.00, -1.00, 315.5, 237.0)">l</text><text xml:space="preserve" font-family="Avenir-Book" font-size="28.0" fill="#FEFFFF" transform="matrix(1.00, 0.00, -0.00, -1.00, 322.2, 237.0)">e</text><text xml:space="preserve" font-family="Avenir-Book" font-size="28.0" fill="#FEFFFF" transform="matrix(1.00, 0.00, -0.00, -1.00, 337.8, 237.0)"> </text><text xml:space="preserve" font-family="Avenir-Book" font-size="28.0" fill="#FEFFFF" transform="matrix(1.00, 0.00, -0.00, -1.00, 345.6, 237.0)">a</text><text xml:space="preserve" font-family="Avenir-Book" font-size="28.0" fill="#FEFFFF" transform="matrix(1.00, 0.00, -0.00, -1.00, 360.1, 237.0)">p</text><text xml:space="preserve" font-family="Avenir-Book" font-size="28.0" fill="#FEFFFF" transform="matrix(1.00, 0.00, -0.00, -1.00, 377.2, 237.0)">p</text><text xml:space="preserve" font-family="Avenir-Book" font-size="28.0" fill="#FEFFFF" transform="matrix(1.00, 0.00, -0.00, -1.00, 394.3, 237.0)"> </text><text xml:space="preserve" font-family="Avenir-Book" font-size="28.0" fill="#FEFFFF" transform="matrix(1.00, 0.00, -0.00, -1.00, 402.1, 237.0)">t</text><text xml:space="preserve" font-family="Avenir-Book" font-size="28.0" fill="#FEFFFF" transform="matrix(1.00, 0.00, -0.00, -1.00, 411.4, 237.0)">h</text><text xml:space="preserve" font-family="Avenir-Book" font-size="28.0" fill="#FEFFFF" transform="matrix(1.00, 0.00, -0.00, -1.00, 427.0, 237.0)">a</text><text xml:space="preserve" font-family="Avenir-Book" font-size="28.0" fill="#FEFFFF" transform="matrix(1.00, 0.00, -0.00, -1.00, 441.5, 237.0)">t</text><text xml:space="preserve" font-family="Avenir-Book" font-size="28.0" fill="#FEFFFF" transform="matrix(1.00, 0.00, -0.00, -1.00, 450.8, 237.0)"> </text><text xml:space="preserve" font-family="Avenir-Book" font-size="28.0" fill="#FEFFFF" transform="matrix(1.00, 0.00, -0.00, -1.00, 458.6, 237.0)">e</text><text xml:space="preserve" font-family="Avenir-Book" font-size="28.0" fill="#FEFFFF" transform="matrix(1.00, 0.00, -0.00, -1.00, 474.1, 237.0)">v</text><text xml:space="preserve" font-family="Avenir-Book" font-size="28.0" fill="#FEFFFF" transform="matrix(1.00, 0.00, -0.00, -1.00, 487.6, 237.0)">e</text><text xml:space="preserve" font-family="Avenir-Book" font-size="28.0" fill="#FEFFFF" transform="matrix(1.00, 0.00, -0.00, -1.00, 503.2, 237.0)">r</text><text xml:space="preserve" font-family="Avenir-Book" font-size="28.0" fill="#FEFFFF" transform="matrix(1.00, 0.00, -0.00, -1.00, 512.5, 237.0)">y</text><text xml:space="preserve" font-family="Avenir-Book" font-size="28.0" fill="#FEFFFF" transform="matrix(1.00, 0.00, -0.00, -1.00, 526.0, 237.0)"> </text><text xml:space="preserve" font-family="Avenir-Book" font-size="28.0" fill="#FEFFFF" transform="matrix(1.00, 0.00, -0.00, -1.00, 533.8, 237.0)">u</text><text xml:space="preserve" font-family="Avenir-Book" font-size="28.0" fill="#FEFFFF" transform="matrix(1.00, 0.00, -0.00, -1.00, 549.4, 237.0)">s</text><text xml:space="preserve" font-family="Avenir-Book" font-size="28.0" fill="#FEFFFF" transform="matrix(1.00, 0.00, -0.00, -1.00, 561.3, 237.0)">e</text><text xml:space="preserve" font-family="Avenir-Book" font-size="28.0" fill="#FEFFFF" transform="matrix(1.00, 0.00, -0.00, -1.00, 576.8, 237.0)">r</text><text xml:space="preserve" font-family="Avenir-Book" font-size="28.0" fill="#FEFFFF" transform="matrix(1.00, 0.00, -0.00, -1.00, 586.1, 237.0)"> </text><text xml:space="preserve" font-family="Avenir-Book" font-size="28.0" fill="#FEFFFF" transform="matrix(1.00, 0.00, -0.00, -1.00, 593.9, 237.0)">c</text><text xml:space="preserve" font-family="Avenir-Book" font-size="28.0" fill="#FEFFFF" transform="matrix(1.00, 0.00, -0.00, -1.00, 607.4, 237.0)">a</text><text xml:space="preserve" font-family="Avenir-Book" font-size="28.0" fill="#FEFFFF" transform="matrix(1.00, 0.00, -0.00, -1.00, 622.0, 237.0)">n</text><text xml:space="preserve" font-family="Avenir-Book" font-size="28.0" fill="#FEFFFF" transform="matrix(1.00, 0.00, -0.00, -1.00, 637.5, 237.0)"> </text><text xml:space="preserve" font-family="Avenir-Book" font-size="28.0" fill="#FEFFFF" transform="matrix(1.00, 0.00, -0.00, -1.00, 645.3, 237.0)">u</text><text xml:space="preserve" font-family="Avenir-Book" font-size="28.0" fill="#FEFFFF" transform="matrix(1.00, 0.00, -0.00, -1.00, 660.9, 237.0)">s</text><text xml:space="preserve" font-family="Avenir-Book" font-size="28.0" fill="#FEFFFF" transform="matrix(1.00, 0.00, -0.00, -1.00, 672.8, 237.0)">e</text><text xml:space="preserve" font-family="Avenir-Book" font-size="28.0" fill="#FEFFFF" transform="matrix(1.00, 0.00, -0.00, -1.00, 688.4, 237.0)"> </text><text xml:space="preserve" font-family="Avenir-Book" font-size="28.0" fill="#FEFFFF" transform="matrix(1.00, 0.00, -0.00, -1.00, 696.2, 237.0)">c</text><text xml:space="preserve" font-family="Avenir-Book" font-size="28.0" fill="#FEFFFF" transform="matrix(1.00, 0.00, -0.00, -1.00, 709.7, 237.0)">o</text><text xml:space="preserve" font-family="Avenir-Book" font-size="28.0" fill="#FEFFFF" transform="matrix(1.00, 0.00, -0.00, -1.00, 726.3, 237.0)">n</text><text xml:space="preserve" font-family="Avenir-Book" font-size="28.0" fill="#FEFFFF" transform="matrix(1.00, 0.00, -0.00, -1.00, 741.8, 237.0)">v</text><text xml:space="preserve" font-family="Avenir-Book" font-size="28.0" fill="#FEFFFF" transform="matrix(1.00, 0.00, -0.00, -1.00, 755.3, 237.0)">e</text><text xml:space="preserve" font-family="Avenir-Book" font-size="28.0" fill="#FEFFFF" transform="matrix(1.00, 0.00, -0.00, -1.00, 770.9, 237.0)">n</text><text xml:space="preserve" font-family="Avenir-Book" font-size="28.0" fill="#FEFFFF" transform="matrix(1.00, 0.00, -0.00, -1.00, 786.5, 237.0)">i</text><text xml:space="preserve" font-family="Avenir-Book" font-size="28.0" fill="#FEFFFF" transform="matrix(1.00, 0.00, -0.00, -1.00, 793.2, 237.0)">e</text><text xml:space="preserve" font-family="Avenir-Book" font-size="28.0" fill="#FEFFFF" transform="matrix(1.00, 0.00, -0.00, -1.00, 808.7, 237.0)">n</text><text xml:space="preserve" font-family="Avenir-Book" font-size="28.0" fill="#FEFFFF" transform="matrix(1.00, 0.00, -0.00, -1.00, 824.3, 237.0)">t</text><text xml:space="preserve" font-family="Avenir-Book" font-size="28.0" fill="#FEFFFF" transform="matrix(1.00, 0.00, -0.00, -1.00, 833.6, 237.0)">l</text><text xml:space="preserve" font-family="Avenir-Book" font-size="28.0" fill="#FEFFFF" transform="matrix(1.00, 0.00, -0.00, -1.00, 840.3, 237.0)">y</text><text xml:space="preserve" font-family="Avenir-Book" font-size="28.0" fill="#FEFFFF" transform="matrix(1.00, 0.00, -0.00, -1.00, 853.8, 237.0)"> </text><text xml:space="preserve" font-family="Avenir-Book" font-size="21.0" fill="#FEFFFF" transform="matrix(1.00, 0.00, -0.00, -1.00, 79.0, 169.2)">•</text><text xml:space="preserve" font-family="Avenir-Book" font-size="28.0" fill="#FEFFFF" transform="matrix(1.00, 0.00, -0.00, -1.00, 106.0, 167.0)">i</text><text xml:space="preserve" font-family="Avenir-Book" font-size="28.0" fill="#FEFFFF" transform="matrix(1.00, 0.00, -0.00, -1.00, 112.7, 167.0)">O</text><text xml:space="preserve" font-family="Avenir-Book" font-size="28.0" fill="#FEFFFF" transform="matrix(1.00, 0.00, -0.00, -1.00, 136.1, 167.0)">S</text><text xml:space="preserve" font-family="Avenir-Book" font-size="28.0" fill="#FEFFFF" transform="matrix(1.00, 0.00, -0.00, -1.00, 151.6, 167.0)"> </text><text xml:space="preserve" font-family="Avenir-Book" font-size="28.0" fill="#FEFFFF" transform="matrix(1.00, 0.00, -0.00, -1.00, 159.4, 167.0)">a</text><text xml:space="preserve" font-family="Avenir-Book" font-size="28.0" fill="#FEFFFF" transform="matrix(1.00, 0.00, -0.00, -1.00, 174.0, 167.0)">n</text><text xml:space="preserve" font-family="Avenir-Book" font-size="28.0" fill="#FEFFFF" transform="matrix(1.00, 0.00, -0.00, -1.00, 189.5, 167.0)">d</text><text xml:space="preserve" font-family="Avenir-Book" font-size="28.0" fill="#FEFFFF" transform="matrix(1.00, 0.00, -0.00, -1.00, 206.6, 167.0)"> </text><text xml:space="preserve" font-family="Avenir-Book" font-size="28.0" fill="#FEFFFF" transform="matrix(1.00, 0.00, -0.00, -1.00, 214.4, 167.0)">A</text><text xml:space="preserve" font-family="Avenir-Book" font-size="28.0" fill="#FEFFFF" transform="matrix(1.00, 0.00, -0.00, -1.00, 233.6, 167.0)">n</text><text xml:space="preserve" font-family="Avenir-Book" font-size="28.0" fill="#FEFFFF" transform="matrix(1.00, 0.00, -0.00, -1.00, 249.2, 167.0)">d</text><text xml:space="preserve" font-family="Avenir-Book" font-size="28.0" fill="#FEFFFF" transform="matrix(1.00, 0.00, -0.00, -1.00, 266.3, 167.0)">r</text><text xml:space="preserve" font-family="Avenir-Book" font-size="28.0" fill="#FEFFFF" transform="matrix(1.00, 0.00, -0.00, -1.00, 275.1, 167.0)">o</text><text xml:space="preserve" font-family="Avenir-Book" font-size="28.0" fill="#FEFFFF" transform="matrix(1.00, 0.00, -0.00, -1.00, 291.7, 167.0)">i</text><text xml:space="preserve" font-family="Avenir-Book" font-size="28.0" fill="#FEFFFF" transform="matrix(1.00, 0.00, -0.00, -1.00, 298.4, 167.0)">d</text><text xml:space="preserve" font-family="Avenir-Book" font-size="28.0" fill="#FEFFFF" transform="matrix(1.00, 0.00, -0.00, -1.00, 315.5, 167.0)"> </text><text xml:space="preserve" font-family="Avenir-Book" font-size="28.0" fill="#FEFFFF" transform="matrix(1.00, 0.00, -0.00, -1.00, 323.3, 167.0)">v</text><text xml:space="preserve" font-family="Avenir-Book" font-size="28.0" fill="#FEFFFF" transform="matrix(1.00, 0.00, -0.00, -1.00, 336.8, 167.0)">e</text><text xml:space="preserve" font-family="Avenir-Book" font-size="28.0" fill="#FEFFFF" transform="matrix(1.00, 0.00, -0.00, -1.00, 352.4, 167.0)">r</text><text xml:space="preserve" font-family="Avenir-Book" font-size="28.0" fill="#FEFFFF" transform="matrix(1.00, 0.00, -0.00, -1.00, 361.7, 167.0)">s</text><text xml:space="preserve" font-family="Avenir-Book" font-size="28.0" fill="#FEFFFF" transform="matrix(1.00, 0.00, -0.00, -1.00, 373.6, 167.0)">i</text><text xml:space="preserve" font-family="Avenir-Book" font-size="28.0" fill="#FEFFFF" transform="matrix(1.00, 0.00, -0.00, -1.00, 380.3, 167.0)">o</text><text xml:space="preserve" font-family="Avenir-Book" font-size="28.0" fill="#FEFFFF" transform="matrix(1.00, 0.00, -0.00, -1.00, 396.9, 167.0)">n</text><text xml:space="preserve" font-family="Avenir-Book" font-size="28.0" fill="#FEFFFF" transform="matrix(1.00, 0.00, -0.00, -1.00, 412.5, 167.0)">s</text><text xml:space="preserve" font-family="Avenir-Book" font-size="28.0" fill="#FEFFFF" transform="matrix(1.00, 0.00, -0.00, -1.00, 424.4, 167.0)"> </text><text xml:space="preserve" font-family="Avenir-Book" font-size="28.0" fill="#FEFFFF" transform="matrix(1.00, 0.00, -0.00, -1.00, 432.2, 167.0)">o</text><text xml:space="preserve" font-family="Avenir-Book" font-size="28.0" fill="#FEFFFF" transform="matrix(1.00, 0.00, -0.00, -1.00, 448.8, 167.0)">f</text><text xml:space="preserve" font-family="Avenir-Book" font-size="28.0" fill="#FEFFFF" transform="matrix(1.00, 0.00, -0.00, -1.00, 457.1, 167.0)"> </text><text xml:space="preserve" font-family="Avenir-Book" font-size="28.0" fill="#FEFFFF" transform="matrix(1.00, 0.00, -0.00, -1.00, 464.9, 167.0)">t</text><text xml:space="preserve" font-family="Avenir-Book" font-size="28.0" fill="#FEFFFF" transform="matrix(1.00, 0.00, -0.00, -1.00, 474.2, 167.0)">h</text><text xml:space="preserve" font-family="Avenir-Book" font-size="28.0" fill="#FEFFFF" transform="matrix(1.00, 0.00, -0.00, -1.00, 489.7, 167.0)">e</text><text xml:space="preserve" font-family="Avenir-Book" font-size="28.0" fill="#FEFFFF" transform="matrix(1.00, 0.00, -0.00, -1.00, 505.3, 167.0)"> </text><text xml:space="preserve" font-family="Avenir-Book" font-size="28.0" fill="#FEFFFF" transform="matrix(1.00, 0.00, -0.00, -1.00, 513.1, 167.0)">a</text><text xml:space="preserve" font-family="Avenir-Book" font-size="28.0" fill="#FEFFFF" transform="matrix(1.00, 0.00, -0.00, -1.00, 527.6, 167.0)">p</text><text xml:space="preserve" font-family="Avenir-Book" font-size="28.0" fill="#FEFFFF" transform="matrix(1.00, 0.00, -0.00, -1.00, 544.7, 167.0)">p</text><text xml:space="preserve" font-family="Avenir-Book" font-size="28.0" fill="#FEFFFF" transform="matrix(1.00, 0.00, -0.00, -1.00, 561.8, 167.0)"> </text><text xml:space="preserve" font-family="Avenir-Book" font-size="28.0" fill="#FEFFFF" transform="matrix(1.00, 0.00, -0.00, -1.00, 569.6, 167.0)">t</text><text xml:space="preserve" font-family="Avenir-Book" font-size="28.0" fill="#FEFFFF" transform="matrix(1.00, 0.00, -0.00, -1.00, 578.9, 167.0)">o</text><text xml:space="preserve" font-family="Avenir-Book" font-size="28.0" fill="#FEFFFF" transform="matrix(1.00, 0.00, -0.00, -1.00, 595.5, 167.0)"> </text><text xml:space="preserve" font-family="Avenir-Book" font-size="28.0" fill="#FEFFFF" transform="matrix(1.00, 0.00, -0.00, -1.00, 603.3, 167.0)">b</text><text xml:space="preserve" font-family="Avenir-Book" font-size="28.0" fill="#FEFFFF" transform="matrix(1.00, 0.00, -0.00, -1.00, 620.4, 167.0)">e</text><text xml:space="preserve" font-family="Avenir-Book" font-size="28.0" fill="#FEFFFF" transform="matrix(1.00, 0.00, -0.00, -1.00, 636.0, 167.0)"> </text><text xml:space="preserve" font-family="Avenir-Book" font-size="28.0" fill="#FEFFFF" transform="matrix(1.00, 0.00, -0.00, -1.00, 643.8, 167.0)">m</text><text xml:space="preserve" font-family="Avenir-Book" font-size="28.0" fill="#FEFFFF" transform="matrix(1.00, 0.00, -0.00, -1.00, 667.6, 167.0)">a</text><text xml:space="preserve" font-family="Avenir-Book" font-size="28.0" fill="#FEFFFF" transform="matrix(1.00, 0.00, -0.00, -1.00, 682.2, 167.0)">d</text><text xml:space="preserve" font-family="Avenir-Book" font-size="28.0" fill="#FEFFFF" transform="matrix(1.00, 0.00, -0.00, -1.00, 699.3, 167.0)">e</text><text xml:space="preserve" font-family="Avenir-Book" font-size="28.0" fill="#FEFFFF" transform="matrix(1.00, 0.00, -0.00, -1.00, 714.8, 167.0)"> </text><text xml:space="preserve" font-family="Avenir-Book" font-size="28.0" fill="#FEFFFF" transform="matrix(1.00, 0.00, -0.00, -1.00, 722.6, 167.0)">a</text><text xml:space="preserve" font-family="Avenir-Book" font-size="28.0" fill="#FEFFFF" transform="matrix(1.00, 0.00, -0.00, -1.00, 737.1, 167.0)">v</text><text xml:space="preserve" font-family="Avenir-Book" font-size="28.0" fill="#FEFFFF" transform="matrix(1.00, 0.00, -0.00, -1.00, 750.6, 167.0)">a</text><text xml:space="preserve" font-family="Avenir-Book" font-size="28.0" fill="#FEFFFF" transform="matrix(1.00, 0.00, -0.00, -1.00, 765.2, 167.0)">i</text><text xml:space="preserve" font-family="Avenir-Book" font-size="28.0" fill="#FEFFFF" transform="matrix(1.00, 0.00, -0.00, -1.00, 771.9, 167.0)">l</text><text xml:space="preserve" font-family="Avenir-Book" font-size="28.0" fill="#FEFFFF" transform="matrix(1.00, 0.00, -0.00, -1.00, 778.6, 167.0)">a</text><text xml:space="preserve" font-family="Avenir-Book" font-size="28.0" fill="#FEFFFF" transform="matrix(1.00, 0.00, -0.00, -1.00, 793.1, 167.0)">b</text><text xml:space="preserve" font-family="Avenir-Book" font-size="28.0" fill="#FEFFFF" transform="matrix(1.00, 0.00, -0.00, -1.00, 810.3, 167.0)">l</text><text xml:space="preserve" font-family="Avenir-Book" font-size="28.0" fill="#FEFFFF" transform="matrix(1.00, 0.00, -0.00, -1.00, 817.0, 167.0)">e</text><text xml:space="preserve" font-family="Helvetica-Light" font-size="18.0" fill="#FEFFFF" transform="matrix(1.00, 0.00, -0.00, -1.00, 506.0, 17.0)">4</text></g></svg>