<?xml version="1.0" encoding="UTF-8" standalone="no"?><svg xmlns="http://www.w3.org/2000/svg" xmlns:xlink="http://www.w3.org/1999/xlink" clip-rule="evenodd" stroke-miterlimit="4.00" viewBox="0 0 1024 768"><desc>SVG generated by Keynote</desc><defs></defs><g transform="matrix(1.00, 0.00, -0.00, -1.00, 0.0, 768.0)"><path d="M 0.0 768.0 L 1024.0 768.0 L 1024.0 0.0 L 0.0 0.0 Z M 0.0 768.0 " fill="#000000"></path><text xml:space="preserve" font-family="Helvetica" font-size="55.0" fill="#41D8D5" transform="matrix(1.00, 0.00, -0.00, -1.00, 333.0, 385.0)">D</text><text xml:space="preserve" font-family="Helvetica" font-size="55.0" fill="#41D8D5" transform="matrix(1.00, 0.00, -0.00, -1.00, 372.7, 385.0)">e</text><text xml:space="preserve" font-family="Helvetica" font-size="55.0" fill="#41D8D5" transform="matrix(1.00, 0.00, -0.00, -1.00, 403.3, 385.0)">m</text><text xml:space="preserve" font-family="Helvetica" font-size="55.0" fill="#41D8D5" transform="matrix(1.00, 0.00, -0.00, -1.00, 449.1, 385.0)">o</text><text xml:space="preserve" font-family="Helvetica" font-size="55.0" fill="#41D8D5" transform="matrix(1.00, 0.00, -0.00, -1.00, 479.7, 385.0)">n</text><text xml:space="preserve" font-family="Helvetica" font-size="55.0" fill="#41D8D5" transform="matrix(1.00, 0.00, -0.00, -1.00, 510.3, 385.0)">s</text><text xml:space="preserve" font-family="Helvetica" font-size="55.0" fill="#41D8D5" transform="matrix(1.00, 0.00, -0.00, -1.00, 537.8, 385.0)">t</text><text xml:space="preserve" font-family="Helvetica" font-size="55.0" fill="#41D8D5" transform="matrix(1.00, 0.00, -0.00, -1.00, 553.1, 385.0)">r</text><text xml:space="preserve" font-family="Helvetica" font-size="55.0" fill="#41D8D5" transform="matrix(1.00, 0.00, -0.00, -1.00, 571.4, 385.0)">a</text><text xml:space="preserve" font-family="Helvetica" font-size="55.0" fill="#41D8D5" transform="matrix(1.00, 0.00, -0.00, -1.00, 602.0, 385.0)">t</text><text xml:space="preserve" font-family="Helvetica" font-size="55.0" fill="#41D8D5" transform="matrix(1.00, 0.00, -0.00, -1.00, 617.3, 385.0)">i</text><text xml:space="preserve" font-family="Helvetica" font-size="55.0" fill="#41D8D5" transform="matrix(1.00, 0.00, -0.00, -1.00, 629.5, 385.0)">o</text><text xml:space="preserve" font-family="Helvetica" font-size="55.0" fill="#41D8D5" transform="matrix(1.00, 0.00, -0.00, -1.00, 660.1, 385.0)">n</text><text xml:space="preserve" font-family="Helvetica-Light" font-size="18.0" fill="#FEFFFF" transform="matrix(1.00, 0.00, -0.00, -1.00, 501.0, 17.0)">1</text><text xml:space="preserve" font-family="Helvetica-Light" font-size="18.0" fill="#FEFFFF" transform="matrix(1.00, 0.00, -0.00, -1.00, 511.0, 17.0)">0</text></g></svg>